<svg width="46" height="45" viewBox="0 0 46 45" fill="none" xmlns="http://www.w3.org/2000/svg">
<g clip-path="url(#clip0_586_1035)">
<path d="M11.2286 9.48788C15.3704 9.48788 19.5121 9.48788 23.6711 9.50511C23.6904 10.491 23.6925 11.4596 23.6921 12.4454C23.6913 13.4311 23.6929 14.3999 23.6919 15.3856C23.691 16.3714 23.6928 17.3402 23.6921 18.326C23.6893 19.3098 23.6888 20.2765 23.6715 21.2458C17.9444 21.2488 12.2342 21.249 6.52405 21.2493C6.52405 18.8227 6.52405 16.3962 6.53642 13.9649C6.56484 13.9292 6.59279 13.8992 6.59517 13.8673C6.64684 13.1736 6.82976 12.5225 7.16778 11.909C7.50661 11.294 7.96312 10.7968 8.53445 10.3957C9.30687 9.85333 10.1713 9.60117 11.1059 9.55849C11.1478 9.55657 11.1877 9.51238 11.2286 9.48788ZM11.0435 11.6754C10.9757 11.5383 10.9062 11.4021 10.8405 11.264C10.7612 11.0977 10.6474 10.9825 10.4495 10.9804C10.2494 10.9782 10.138 11.0991 10.0566 11.2616C9.97171 11.4313 9.90111 11.61 9.79817 11.7678C9.74553 11.8484 9.64357 11.9213 9.55027 11.9458C9.36207 11.9952 9.16427 12.0074 8.97096 12.0382C8.79684 12.066 8.65486 12.1431 8.59915 12.3229C8.54403 12.5007 8.6091 12.6456 8.73842 12.7693C8.87118 12.8963 8.99783 13.03 9.13515 13.1517C9.24373 13.2479 9.27594 13.358 9.24955 13.4967C9.21298 13.6889 9.18419 13.8826 9.15025 14.0754C9.11956 14.2497 9.17652 14.3921 9.31594 14.4944C9.45272 14.5948 9.6023 14.5867 9.74933 14.5109C9.92873 14.4185 10.1012 14.3086 10.2885 14.2371C10.3843 14.2006 10.5173 14.2011 10.6131 14.238C10.8001 14.3099 10.9697 14.426 11.1522 14.5115C11.4858 14.6678 11.785 14.4542 11.7452 14.0869C11.7241 13.8927 11.6886 13.6993 11.648 13.508C11.6183 13.3682 11.6449 13.2598 11.7531 13.1619C11.9029 13.0264 12.0493 12.8861 12.1865 12.738C12.4296 12.4754 12.3219 12.1267 11.9737 12.0504C11.7888 12.0098 11.6004 11.977 11.412 11.9639C11.2281 11.9512 11.1172 11.8649 11.0435 11.6754ZM21.6032 13.1209C21.7346 12.9924 21.8723 12.8699 21.9958 12.7343C22.2365 12.47 22.1257 12.1222 21.7769 12.0493C21.5736 12.0069 21.3669 11.978 21.1604 11.9549C21.029 11.9402 20.9494 11.8762 20.8951 11.7612C20.8116 11.5844 20.723 11.4099 20.635 11.2353C20.558 11.0825 20.441 10.9818 20.2629 10.9791C20.0755 10.9763 19.9556 11.0824 19.8759 11.2416C19.7938 11.4057 19.711 11.5695 19.6342 11.7361C19.5726 11.8695 19.4832 11.9448 19.3285 11.9588C19.1279 11.9769 18.9273 12.0085 18.7306 12.0519C18.3813 12.129 18.2744 12.4788 18.5187 12.7383C18.6486 12.8764 18.7855 13.0091 18.9284 13.1336C19.0483 13.238 19.086 13.358 19.0561 13.5099C19.0194 13.6959 18.9878 13.883 18.9561 14.0699C18.9268 14.2423 18.9821 14.3885 19.1193 14.4922C19.254 14.5941 19.4052 14.5884 19.5527 14.5133C19.7325 14.4218 19.9118 14.329 20.089 14.2326C20.2076 14.1681 20.3182 14.1702 20.4363 14.2371C20.6011 14.3305 20.7697 14.4177 20.9391 14.5024C21.0891 14.5775 21.2424 14.6012 21.3899 14.4939C21.5403 14.3845 21.5843 14.2341 21.5533 14.0561C21.5228 13.8812 21.5001 13.7047 21.4607 13.5319C21.4243 13.3722 21.4513 13.2416 21.6032 13.1209ZM18.6548 17.7739C18.7377 17.8556 18.8133 17.9469 18.9052 18.0167C19.0658 18.1388 19.0875 18.2911 19.0461 18.4736C19.0096 18.6346 18.9877 18.7988 18.9576 18.9612C18.9242 19.1417 18.9815 19.2909 19.1257 19.3975C19.2623 19.4985 19.4124 19.4863 19.5592 19.4098C19.7382 19.3165 19.911 19.2071 20.0984 19.1359C20.1936 19.0998 20.3256 19.1036 20.422 19.1399C20.5982 19.2062 20.7594 19.3115 20.9283 19.3976C21.0849 19.4775 21.2434 19.4992 21.3962 19.3891C21.5562 19.2738 21.5826 19.1107 21.5507 18.9301C21.5198 18.7555 21.489 18.5809 21.4546 18.407C21.4276 18.2704 21.4539 18.1574 21.5623 18.0594C21.712 17.9239 21.8555 17.7811 21.9964 17.6363C22.1116 17.5179 22.1572 17.372 22.1007 17.2136C22.0453 17.0579 21.9268 16.9668 21.7601 16.9432C21.5723 16.9166 21.385 16.8846 21.1965 16.8635C21.042 16.8462 20.9382 16.7772 20.8755 16.6305C20.8059 16.4677 20.7199 16.3119 20.6421 16.1526C20.5644 15.9936 20.4522 15.8842 20.2631 15.8798C20.0722 15.8753 19.9568 15.9853 19.8756 16.1402C19.7932 16.2973 19.7087 16.4544 19.6421 16.6183C19.5759 16.7813 19.4606 16.8505 19.2935 16.8685C19.105 16.8887 18.917 16.9169 18.7302 16.9496C18.5744 16.9768 18.4578 17.0654 18.4098 17.219C18.3603 17.3774 18.3958 17.5212 18.5192 17.6387C18.5591 17.6767 18.5973 17.7165 18.6548 17.7739ZM14.164 13.4386C14.1271 13.6619 14.0751 13.884 14.0567 14.1088C14.0272 14.4684 14.3269 14.6657 14.6516 14.5095C14.8278 14.4246 15.0014 14.3336 15.1722 14.2381C15.2965 14.1685 15.4117 14.1682 15.5359 14.2377C15.7119 14.3363 15.8892 14.4334 16.0717 14.519C16.2179 14.5875 16.3689 14.5913 16.5032 14.4807C16.6387 14.3692 16.6849 14.2286 16.6488 14.0548C16.6128 13.8814 16.5939 13.7044 16.5561 13.5314C16.5213 13.372 16.5551 13.2468 16.6812 13.1376C16.8105 13.0255 16.9281 12.8998 17.0514 12.7806C17.183 12.6535 17.2643 12.5056 17.2009 12.3205C17.1389 12.1397 16.9941 12.0571 16.81 12.0326C16.628 12.0084 16.447 11.9746 16.2644 11.9566C16.1265 11.943 16.0422 11.8756 15.9858 11.7532C15.9143 11.598 15.8307 11.4482 15.7587 11.2931C15.6762 11.1151 15.5642 10.9812 15.3488 10.9801C15.1386 10.979 15.0333 11.1154 14.951 11.2829C14.8755 11.4367 14.7942 11.5878 14.7238 11.7438C14.6652 11.8733 14.5773 11.9434 14.4318 11.9578C14.2372 11.9771 14.0438 12.0101 13.8508 12.0427C13.6821 12.0711 13.5546 12.1575 13.5022 12.3284C13.4497 12.4999 13.5107 12.6401 13.6329 12.7597C13.7729 12.8968 13.9204 13.0271 14.051 13.1726C14.1073 13.2352 14.1292 13.3288 14.164 13.4386ZM15.197 19.1251C15.3063 19.1292 15.4264 19.1058 15.5226 19.1434C15.7149 19.2185 15.8919 19.3322 16.0797 19.4204C16.228 19.4901 16.377 19.4846 16.5097 19.3751C16.6399 19.2678 16.6828 19.1307 16.6519 18.9651C16.6149 18.7669 16.5687 18.5685 16.5571 18.3683C16.5515 18.2722 16.5923 18.1523 16.654 18.0778C16.782 17.9232 16.9405 17.7942 17.0817 17.6501C17.2005 17.5289 17.2611 17.3829 17.1983 17.2156C17.138 17.0551 17.0181 16.962 16.8414 16.9417C16.6594 16.9207 16.4792 16.8839 16.2972 16.864C16.1348 16.8463 16.0293 16.7713 15.9661 16.6178C15.9036 16.4658 15.8232 16.3211 15.7508 16.173C15.6682 16.004 15.5556 15.8777 15.3476 15.8799C15.1387 15.8821 15.032 16.017 14.9494 16.1829C14.8758 16.3306 14.7984 16.4768 14.7339 16.6285C14.6753 16.7664 14.5819 16.8416 14.4326 16.8597C14.2447 16.8825 14.0582 16.9166 13.8705 16.9421C13.6914 16.9664 13.5602 17.0505 13.5033 17.2278C13.4456 17.4076 13.516 17.5487 13.6444 17.6715C13.7814 17.8025 13.9136 17.9387 14.0532 18.0668C14.1541 18.1594 14.1812 18.2637 14.1553 18.3967C14.1146 18.6064 14.0701 18.8174 14.0567 19.0297C14.0351 19.3739 14.3424 19.5654 14.6528 19.4113C14.8279 19.3244 14.9992 19.2299 15.197 19.1251ZM9.75861 16.7498C9.68994 16.7844 9.62464 16.8358 9.55198 16.8503C9.35435 16.8896 9.15326 16.911 8.95423 16.9437C8.78666 16.9712 8.65629 17.0497 8.60093 17.2223C8.5431 17.4027 8.61018 17.5446 8.73636 17.6684C8.87609 17.8054 9.0272 17.9328 9.15222 18.0821C9.21119 18.1525 9.25212 18.2663 9.24641 18.3569C9.23379 18.5572 9.18976 18.7559 9.15227 18.954C9.11809 19.1347 9.17004 19.2846 9.31282 19.3934C9.45442 19.5012 9.61027 19.4861 9.76235 19.4067C9.914 19.3275 10.0702 19.2553 10.2148 19.1647C10.3728 19.0659 10.5148 19.0624 10.6754 19.1612C10.8363 19.26 11.0054 19.3489 11.1792 19.4225C11.4913 19.5546 11.7753 19.3507 11.7459 19.0144C11.7279 18.8082 11.6887 18.6031 11.6462 18.4002C11.6166 18.2586 11.6513 18.1533 11.7574 18.0567C11.9066 17.9209 12.0496 17.778 12.1901 17.6332C12.3048 17.515 12.351 17.3716 12.2927 17.2119C12.2356 17.0553 12.1179 16.967 11.9515 16.9438C11.7639 16.9177 11.577 16.8849 11.3888 16.8643C11.234 16.8473 11.132 16.78 11.0707 16.6308C11.0036 16.4675 10.9135 16.3137 10.8363 16.1545C10.7554 15.9877 10.6368 15.8795 10.4403 15.8793C10.2474 15.8792 10.1419 16.0004 10.0624 16.1531C9.96354 16.3429 9.8698 16.5353 9.75861 16.7498Z" fill="#1DB0F6"/>
<path d="M6.52405 30.0704C6.52405 29.1018 6.52405 28.1331 6.54118 27.1473C17.9898 27.13 29.4212 27.13 40.8527 27.13C40.8527 28.0987 40.8527 29.0673 40.8355 30.0532C29.3869 30.0704 17.9555 30.0704 6.52405 30.0704Z" fill="#FF4B4B"/>
<path d="M40.8527 27.1129C29.4212 27.13 17.9898 27.13 6.54117 27.13C6.52404 26.1613 6.52404 25.1926 6.54113 24.2068C17.9897 24.1896 29.4212 24.1896 40.8527 24.1896C40.8527 25.1583 40.8527 26.127 40.8527 27.1129Z" fill="#FEFFFF"/>
<path d="M40.8527 24.1726C29.4212 24.1897 17.9897 24.1897 6.54114 24.1897C6.52405 23.2209 6.52405 22.2522 6.52405 21.2664C12.2342 21.249 17.9444 21.2488 23.6886 21.2483C29.4326 21.2485 35.1426 21.2489 40.8527 21.2493C40.8527 22.218 40.8527 23.1868 40.8527 24.1726Z" fill="#FF4B4B"/>
<path d="M6.52405 30.0875C17.9555 30.0704 29.3869 30.0704 40.8355 30.0704C40.8527 30.549 40.8527 31.0276 40.8406 31.5105C40.7999 31.6574 40.778 31.8018 40.7411 31.9423C40.6462 32.3028 40.5447 32.6615 40.4295 33.0177C40.3703 33.0133 40.3274 33.0109 40.2846 33.0109C29.2279 33.0107 18.1711 33.0107 7.1144 33.0112C7.05346 33.0112 6.99252 33.0184 6.9189 33.0145C6.74626 32.5404 6.6167 32.0675 6.59441 31.5707C6.59336 31.5474 6.5485 31.526 6.52405 31.5038C6.52405 31.0374 6.52405 30.5711 6.52405 30.0875Z" fill="#FEFFFF"/>
<path d="M6.93152 33.0222C6.99246 33.0184 7.0534 33.0112 7.11434 33.0112C18.1711 33.0107 29.2278 33.0107 40.2845 33.0109C40.3274 33.0109 40.3702 33.0133 40.4306 33.0309C40.2749 33.4631 40.0528 33.8468 39.7654 34.198C39.2465 34.8323 38.6114 35.2966 37.8457 35.5847C37.4178 35.7457 36.9777 35.8507 36.5202 35.8811C36.4927 35.8829 36.468 35.9268 36.4421 35.9511C27.963 35.9511 19.484 35.9511 10.9974 35.9371C10.9527 35.9081 10.9169 35.8868 10.8783 35.8791C10.5105 35.8055 10.1342 35.7619 9.77588 35.6566C9.00815 35.431 8.35434 35.0106 7.8047 34.4248C7.41918 34.0139 7.14155 33.5401 6.93152 33.0222Z" fill="#FF4B4B"/>
<path d="M23.6946 18.3089C23.6928 17.3402 23.691 16.3714 23.7087 15.3856C29.4364 15.3686 35.1445 15.3686 40.8527 15.3686C40.8527 16.3372 40.8527 17.3058 40.8355 18.2917C35.1104 18.3089 29.4025 18.3089 23.6946 18.3089Z" fill="#FF4B4B"/>
<path d="M23.6922 18.3261C29.4025 18.309 35.1104 18.309 40.8355 18.309C40.8528 19.2776 40.8528 20.2462 40.8528 21.2321C35.1427 21.2489 29.4327 21.2485 23.7055 21.2457C23.6889 20.2765 23.6893 19.3098 23.6922 18.3261Z" fill="#FEFFFF"/>
<path d="M40.8525 15.3513C35.1443 15.3686 29.4362 15.3686 23.7112 15.3686C23.6927 14.3998 23.6911 13.4311 23.7088 12.4453C29.2138 12.4282 34.6995 12.4283 40.1853 12.4279C40.2709 12.4279 40.3565 12.4236 40.4464 12.435C40.4626 12.469 40.4804 12.488 40.4855 12.5099C40.5842 12.9323 40.6802 13.3553 40.7809 13.7772C40.7913 13.8208 40.828 13.8581 40.8525 13.8984C40.8525 14.377 40.8525 14.8555 40.8525 15.3513Z" fill="#FEFFFF"/>
<path d="M40.4422 12.4213C40.3566 12.4236 40.271 12.428 40.1854 12.428C34.6997 12.4283 29.2139 12.4283 23.7113 12.4283C23.6925 11.4596 23.6904 10.491 23.6884 9.50512C27.8056 9.48789 31.9229 9.48789 36.0492 9.50252C36.0833 9.53154 36.1072 9.55592 36.1334 9.55879C36.3845 9.58624 36.6411 9.58672 36.8862 9.64022C37.2855 9.72734 37.6913 9.81314 38.0692 9.96283C38.7684 10.2398 39.343 10.7016 39.8101 11.2924C40.0807 11.6346 40.2892 12.0127 40.4422 12.4213Z" fill="#FF4B4B"/>
<path d="M11.0489 11.688C11.1172 11.8649 11.2282 11.9512 11.412 11.9639C11.6004 11.977 11.7888 12.0098 11.9737 12.0503C12.3219 12.1267 12.4296 12.4754 12.1865 12.7379C12.0493 12.8861 11.9029 13.0264 11.7532 13.1619C11.6449 13.2598 11.6183 13.3682 11.648 13.508C11.6887 13.6993 11.7241 13.8926 11.7452 14.0869C11.7851 14.4541 11.4858 14.6678 11.1523 14.5115C10.9697 14.426 10.8001 14.3099 10.6131 14.2379C10.5173 14.2011 10.3843 14.2006 10.2885 14.2371C10.1013 14.3086 9.92875 14.4185 9.74935 14.5109C9.60231 14.5867 9.45274 14.5948 9.31595 14.4944C9.17653 14.3921 9.11957 14.2497 9.15027 14.0754C9.18421 13.8826 9.21299 13.6889 9.24956 13.4967C9.27595 13.358 9.24374 13.2479 9.13516 13.1517C8.99785 13.0299 8.87119 12.8963 8.73843 12.7693C8.60912 12.6456 8.54404 12.5007 8.59916 12.3229C8.65487 12.1431 8.79685 12.0659 8.97097 12.0382C9.16428 12.0074 9.36208 11.9952 9.55029 11.9458C9.64358 11.9213 9.74554 11.8484 9.79818 11.7677C9.90113 11.61 9.97173 11.4312 10.0566 11.2616C10.138 11.0991 10.2494 10.9782 10.4495 10.9804C10.6474 10.9825 10.7612 11.0977 10.8405 11.264C10.9062 11.4021 10.9757 11.5383 11.0489 11.688Z" fill="#FEFFFF"/>
<path d="M21.5937 13.1303C21.4513 13.2416 21.4243 13.3722 21.4607 13.5319C21.5001 13.7046 21.5228 13.8812 21.5533 14.056C21.5843 14.2341 21.5403 14.3844 21.3899 14.4939C21.2423 14.6012 21.0891 14.5775 20.9391 14.5024C20.7696 14.4176 20.6011 14.3305 20.4363 14.2371C20.3182 14.1702 20.2076 14.1681 20.089 14.2326C19.9117 14.329 19.7325 14.4218 19.5527 14.5133C19.4052 14.5884 19.254 14.5941 19.1193 14.4922C18.9821 14.3885 18.9268 14.2423 18.9561 14.0699C18.9878 13.883 19.0194 13.6959 19.056 13.5099C19.086 13.358 19.0483 13.2379 18.9284 13.1336C18.7854 13.0091 18.6486 12.8764 18.5187 12.7383C18.2744 12.4788 18.3813 12.129 18.7306 12.0519C18.9273 12.0085 19.1279 11.9769 19.3284 11.9588C19.4831 11.9448 19.5726 11.8694 19.6341 11.7361C19.711 11.5695 19.7938 11.4057 19.8759 11.2416C19.9556 11.0824 20.0754 10.9762 20.2629 10.9791C20.441 10.9818 20.558 11.0825 20.6349 11.2352C20.723 11.4099 20.8115 11.5843 20.895 11.7612C20.9494 11.8762 21.029 11.9402 21.1603 11.9549C21.3668 11.978 21.5736 12.0069 21.7769 12.0493C22.1257 12.1222 22.2364 12.47 21.9958 12.7343C21.8723 12.8699 21.7345 12.9924 21.5937 13.1303Z" fill="#FEFFFF"/>
<path d="M18.6456 17.7647C18.5974 17.7165 18.5591 17.6768 18.5192 17.6388C18.3959 17.5213 18.3603 17.3775 18.4098 17.219C18.4579 17.0654 18.5744 16.9768 18.7303 16.9496C18.9171 16.9169 19.1051 16.8887 19.2936 16.8685C19.4607 16.8506 19.576 16.7814 19.6422 16.6184C19.7088 16.4544 19.7933 16.2973 19.8757 16.1402C19.9569 15.9853 20.0723 15.8753 20.2632 15.8798C20.4523 15.8842 20.5645 15.9936 20.6422 16.1527C20.72 16.312 20.806 16.4677 20.8756 16.6305C20.9382 16.7772 21.0421 16.8462 21.1966 16.8635C21.3851 16.8846 21.5723 16.9167 21.7602 16.9433C21.9269 16.9669 22.0454 17.0579 22.1008 17.2136C22.1573 17.3721 22.1117 17.5179 21.9965 17.6363C21.8556 17.7811 21.7121 17.9239 21.5624 18.0594C21.454 18.1575 21.4277 18.2704 21.4547 18.4071C21.4891 18.5809 21.5199 18.7556 21.5508 18.9301C21.5827 19.1108 21.5563 19.2739 21.3963 19.3891C21.2435 19.4993 21.085 19.4776 20.9284 19.3977C20.7595 19.3115 20.5982 19.2062 20.4221 19.1399C20.3257 19.1037 20.1937 19.0998 20.0985 19.1359C19.9111 19.2071 19.7383 19.3165 19.5593 19.4098C19.4125 19.4863 19.2624 19.4986 19.1257 19.3975C18.9816 19.2909 18.9242 19.1417 18.9577 18.9612C18.9878 18.7988 19.0097 18.6346 19.0462 18.4737C19.0876 18.2911 19.0659 18.1388 18.9053 18.0167C18.8134 17.9469 18.7378 17.8556 18.6456 17.7647Z" fill="#FEFFFF"/>
<path d="M14.1653 13.4234C14.1292 13.3287 14.1073 13.2352 14.0511 13.1726C13.9205 13.0271 13.773 12.8968 13.6329 12.7597C13.5107 12.64 13.4497 12.4999 13.5022 12.3284C13.5546 12.1575 13.6821 12.0711 13.8508 12.0427C14.0438 12.0101 14.2372 11.9771 14.4318 11.9578C14.5773 11.9434 14.6652 11.8733 14.7238 11.7438C14.7942 11.5878 14.8755 11.4367 14.951 11.2829C15.0333 11.1154 15.1386 10.979 15.3488 10.9801C15.5642 10.9812 15.6762 11.115 15.7587 11.2931C15.8307 11.4482 15.9143 11.5979 15.9859 11.7532C16.0422 11.8755 16.1265 11.943 16.2644 11.9566C16.447 11.9746 16.628 12.0084 16.81 12.0326C16.9941 12.0571 17.1389 12.1397 17.2009 12.3205C17.2644 12.5056 17.183 12.6535 17.0514 12.7806C16.9281 12.8998 16.8105 13.0255 16.6812 13.1376C16.5551 13.2468 16.5213 13.372 16.5561 13.5314C16.5939 13.7044 16.6128 13.8814 16.6489 14.0548C16.6849 14.2285 16.6387 14.3692 16.5032 14.4807C16.3689 14.5913 16.2179 14.5875 16.0717 14.519C15.8892 14.4334 15.7119 14.3363 15.5359 14.2377C15.4117 14.1682 15.2965 14.1685 15.1722 14.2381C15.0014 14.3336 14.8278 14.4246 14.6516 14.5094C14.3269 14.6657 14.0272 14.4684 14.0567 14.1088C14.0751 13.884 14.1271 13.6619 14.1653 13.4234Z" fill="#FEFFFF"/>
<path d="M15.1846 19.132C14.9992 19.2299 14.8279 19.3244 14.6529 19.4113C14.3424 19.5654 14.0351 19.374 14.0568 19.0297C14.0701 18.8174 14.1146 18.6064 14.1553 18.3968C14.1812 18.2638 14.1541 18.1594 14.0532 18.0668C13.9136 17.9387 13.7814 17.8026 13.6444 17.6715C13.516 17.5487 13.4456 17.4076 13.5033 17.2278C13.5602 17.0506 13.6915 16.9665 13.8705 16.9422C14.0582 16.9167 14.2447 16.8825 14.4327 16.8597C14.582 16.8416 14.6754 16.7664 14.734 16.6285C14.7984 16.4769 14.8758 16.3306 14.9494 16.183C15.0321 16.017 15.1388 15.8821 15.3476 15.8799C15.5556 15.8777 15.6682 16.0041 15.7508 16.1731C15.8232 16.3211 15.9036 16.4658 15.9662 16.6178C16.0293 16.7713 16.1349 16.8463 16.2972 16.8641C16.4792 16.884 16.6594 16.9207 16.8414 16.9417C17.0182 16.962 17.138 17.0551 17.1983 17.2157C17.2611 17.383 17.2005 17.5289 17.0817 17.6501C16.9405 17.7942 16.7821 17.9232 16.654 18.0778C16.5924 18.1523 16.5515 18.2723 16.5571 18.3684C16.5687 18.5685 16.6149 18.7669 16.6519 18.9651C16.6828 19.1307 16.6399 19.2678 16.5098 19.3751C16.377 19.4846 16.228 19.4901 16.0797 19.4204C15.8919 19.3322 15.715 19.2186 15.5226 19.1434C15.4264 19.1058 15.3063 19.1293 15.1846 19.132Z" fill="#FEFFFF"/>
<path d="M9.76624 16.7382C9.8698 16.5353 9.96354 16.3429 10.0624 16.1532C10.1419 16.0004 10.2474 15.8792 10.4403 15.8793C10.6368 15.8795 10.7554 15.9877 10.8363 16.1545C10.9135 16.3137 11.0036 16.4675 11.0707 16.6308C11.132 16.78 11.234 16.8473 11.3888 16.8643C11.577 16.8849 11.7639 16.9177 11.9515 16.9438C12.1179 16.967 12.2356 17.0553 12.2927 17.2119C12.351 17.3716 12.3048 17.515 12.1901 17.6332C12.0496 17.778 11.9066 17.9209 11.7574 18.0567C11.6513 18.1533 11.6166 18.2586 11.6463 18.4003C11.6887 18.6032 11.7279 18.8082 11.7459 19.0144C11.7753 19.3507 11.4913 19.5546 11.1792 19.4225C11.0054 19.3489 10.8363 19.26 10.6754 19.1612C10.5148 19.0624 10.3728 19.0659 10.2148 19.1648C10.0702 19.2553 9.91401 19.3275 9.76236 19.4067C9.61027 19.4861 9.45442 19.5012 9.31283 19.3934C9.17004 19.2846 9.11809 19.1347 9.15228 18.954C9.18976 18.7559 9.23379 18.5572 9.24641 18.3569C9.25212 18.2663 9.2112 18.1525 9.15222 18.0821C9.0272 17.9328 8.8761 17.8054 8.73637 17.6684C8.61019 17.5446 8.54311 17.4027 8.60094 17.2223C8.65629 17.0497 8.78666 16.9712 8.95423 16.9437C9.15327 16.911 9.35436 16.8896 9.55198 16.8503C9.62464 16.8359 9.68995 16.7844 9.76624 16.7382Z" fill="#FEFFFF"/>
</g>
<defs>
<clipPath id="clip0_586_1035">
<rect width="34.3286" height="26.4632" fill="white" transform="translate(6.48718 9.45114)"/>
</clipPath>
</defs>
</svg>
