<svg width="45" height="45" viewBox="0 0 45 45" fill="none" xmlns="http://www.w3.org/2000/svg">
<g clip-path="url(#clip0_617_1011)">
<path d="M5.03748 31.5C5.03748 25.5367 5.03748 19.5734 5.0501 13.6053C5.07928 13.5503 5.10216 13.5012 5.11133 13.4497C5.16356 13.1561 5.19343 12.8571 5.26672 12.569C5.40537 12.0239 5.6503 11.5252 5.97292 11.0625C6.25028 10.6646 6.59211 10.3371 6.97296 10.0396C7.35235 9.74319 7.77577 9.53527 8.2232 9.38124C8.69622 9.2184 9.18545 9.1112 9.69166 9.10897C9.71537 9.10886 9.73887 9.06239 9.76248 9.03751C12.1133 9.03751 14.464 9.03751 16.8347 9.05482C16.855 9.10337 16.8558 9.13459 16.8558 9.16582C16.8559 18.0669 16.8559 26.9681 16.8556 35.8692C16.8556 35.9253 16.8519 35.9814 16.85 36.0375C14.4367 36.0375 12.0234 36.0375 9.60528 36.0249C9.46571 35.9833 9.33229 35.9434 9.19605 35.9274C8.5094 35.8464 7.87946 35.6102 7.29151 35.2519C6.59557 34.8277 6.06095 34.2522 5.67606 33.5361C5.34909 32.9278 5.15471 32.2806 5.10924 31.5896C5.10718 31.5583 5.06237 31.5298 5.03748 31.5Z" fill="#1CB0F6"/>
<path d="M40.0625 13.575C40.0625 19.5508 40.0625 25.5266 40.0483 31.5104C40.0186 31.5565 39.9926 31.5936 39.9892 31.6326C39.9372 32.2411 39.7887 32.8256 39.5186 33.3723C39.0584 34.3034 38.3616 35.0088 37.4313 35.475C36.8746 35.754 36.2822 35.9128 35.661 35.9655C35.6264 35.9685 35.5953 36.0126 35.5625 36.0375C33.1367 36.0375 30.711 36.0375 28.2659 36.0201C28.2464 27.0455 28.2461 18.0883 28.246 9.13103C28.246 9.09985 28.2486 9.06868 28.25 9.03751C30.5508 9.03751 32.8516 9.03751 35.1616 9.05243C35.3625 9.0949 35.555 9.11756 35.7456 9.15109C36.0754 9.2091 36.4153 9.23995 36.7301 9.34464C37.0944 9.46576 37.4493 9.6309 37.7851 9.81851C38.4878 10.2112 39.009 10.7897 39.395 11.4934C39.7376 12.1182 39.9272 12.7875 39.991 13.4953C39.9936 13.5238 40.0377 13.5485 40.0625 13.575Z" fill="#FF4B4B"/>
<path d="M28.2326 9.03751C28.2486 9.06868 28.246 9.09985 28.246 9.13103C28.2461 18.0883 28.2464 27.0455 28.2483 36.0201C24.4617 36.0375 20.6733 36.0375 16.8675 36.0375C16.852 35.9814 16.8557 35.9253 16.8557 35.8692C16.8559 26.9681 16.8559 18.0669 16.8559 9.16582C16.8559 9.13459 16.855 9.10337 16.8523 9.05482C20.6384 9.03751 24.4268 9.03751 28.2326 9.03751Z" fill="white"/>
</g>
<defs>
<clipPath id="clip0_617_1011">
<rect width="35.025" height="27" fill="white" transform="translate(5 9)"/>
</clipPath>
</defs>
</svg>
