<svg width="45" height="45" viewBox="0 0 45 45" fill="none" xmlns="http://www.w3.org/2000/svg">
<g clip-path="url(#clip0_586_1034)">
<path d="M40.0003 17.0651C40.0003 20.808 40.0003 24.551 39.9672 28.3534C39.9342 28.4128 39.8686 28.4235 39.8064 28.4146C28.5855 28.4034 17.4268 28.401 6.2681 28.3998C6.15742 28.3998 6.04675 28.4153 5.90328 28.4182C5.87048 28.4128 5.80432 28.4192 5.80432 28.4192C5.80432 24.6762 5.80432 20.9332 5.83737 17.1309C5.87042 17.0715 5.93597 17.0607 5.99817 17.0696C17.2191 17.0808 28.3778 17.0832 39.5365 17.0845C39.6471 17.0845 39.7578 17.069 39.9013 17.0661C39.9341 17.0714 40.0003 17.0651 40.0003 17.0651ZM11.5227 22.2075C11.5237 22.719 11.5133 23.2309 11.5277 23.7421C11.5713 25.2987 12.8371 26.5303 14.3693 26.5173C15.8841 26.5045 17.1407 25.2996 17.1764 23.7772C17.206 22.5101 17.1932 21.2416 17.1804 19.9739C17.1735 19.2922 16.8934 18.9893 16.2063 18.9749C14.9835 18.9491 13.7595 18.9506 12.5366 18.973C11.8126 18.9862 11.5381 19.287 11.5259 20.0056C11.5143 20.6949 11.5229 21.3845 11.5227 22.2075ZM10.4483 20.4139C10.0899 20.257 9.70086 19.9337 9.38215 19.9924C9.09409 20.0455 8.69 20.5039 8.67128 20.8044C8.59124 22.089 8.6048 23.3823 8.6476 24.6703C8.66594 25.2223 9.05961 25.5777 9.62059 25.5718C10.1471 25.5662 10.5442 25.228 10.5512 24.7028C10.5701 23.3071 10.5146 21.9103 10.4483 20.4139ZM18.2613 20.4149C18.2163 21.7646 18.1533 23.114 18.1338 24.4641C18.1241 25.1376 18.5619 25.595 19.1125 25.5854C19.668 25.5756 20.0695 25.1192 20.0766 24.4438C20.0885 23.3097 20.0788 22.1753 20.0803 21.041C20.081 20.5542 19.9101 20.1744 19.4336 19.9812C18.9685 19.7927 18.6165 19.9711 18.2613 20.4149Z" fill="#FFC701"/>
<path d="M5.93608 28.4235C6.04675 28.4153 6.15742 28.3998 6.2681 28.3998C17.4268 28.401 28.5855 28.4034 39.8248 28.4396C39.9326 28.5051 39.9643 28.5316 40.0003 28.5528C40.0003 29.5797 40.0003 30.6066 39.9561 31.7196C39.4755 34.0205 38.2055 35.3991 35.9342 35.7786C35.8601 35.791 35.7951 35.858 35.7258 35.8996C27.174 35.8996 18.6222 35.8996 9.98487 35.855C7.73753 35.3945 6.37687 34.1543 5.93391 31.9644C5.91888 31.8901 5.84876 31.827 5.80432 31.7587C5.80432 30.7318 5.80432 29.7049 5.8297 28.5975C5.88692 28.4901 5.91393 28.4589 5.93608 28.4235Z" fill="#FF4B4B"/>
<path d="M39.8685 17.0607C39.7578 17.069 39.6471 17.0845 39.5365 17.0845C28.3778 17.0832 17.2191 17.0808 5.97977 17.0447C5.87193 16.9792 5.84032 16.9527 5.80432 16.9315C5.80432 15.9046 5.80432 14.8777 5.84884 13.7653C6.34002 11.4377 7.63192 10.0555 9.93651 9.69871C9.98858 9.69065 10.0316 9.62402 10.0788 9.58472C18.5861 9.58472 27.0933 9.58472 35.6876 9.62973C38.1075 10.0468 39.4326 11.3319 39.8801 13.6493C39.8946 13.7242 39.9591 13.7895 40.0003 13.8592C40.0003 14.8416 40.0003 15.8239 39.9749 16.8868C39.9177 16.9942 39.8906 17.0254 39.8685 17.0607Z" fill="#FF4B4B"/>
<path d="M5.80432 16.9649C5.84032 16.9527 5.87193 16.9791 5.91756 17.0358C5.93597 17.0607 5.87042 17.0714 5.83737 17.0682C5.80432 17.065 5.80432 16.9983 5.80432 16.9649Z" fill="#FF424E"/>
<path d="M5.90328 28.4182C5.91393 28.4589 5.88692 28.4901 5.8297 28.5349C5.80432 28.5528 5.80432 28.486 5.80432 28.4526C5.80432 28.4192 5.87048 28.4128 5.90328 28.4182Z" fill="#FF424E"/>
<path d="M11.5227 22.1408C11.5229 21.3846 11.5142 20.6949 11.5259 20.0056C11.538 19.287 11.8126 18.9862 12.5366 18.973C13.7595 18.9507 14.9835 18.9491 16.2062 18.9749C16.8933 18.9894 17.1734 19.2923 17.1803 19.974C17.1932 21.2416 17.206 22.5101 17.1763 23.7772C17.1407 25.2996 15.884 26.5045 14.3692 26.5173C12.8371 26.5303 11.5712 25.2987 11.5276 23.7422C11.5133 23.231 11.5236 22.7191 11.5227 22.1408Z" fill="#FF4C4B"/>
<path d="M10.4685 20.4639C10.5146 21.9103 10.5701 23.3071 10.5512 24.7029C10.5442 25.228 10.147 25.5662 9.62058 25.5718C9.05959 25.5777 8.66593 25.2223 8.64758 24.6703C8.60478 23.3823 8.59123 22.089 8.67126 20.8044C8.68998 20.5039 9.09407 20.0455 9.38214 19.9925C9.70085 19.9338 10.0899 20.257 10.4685 20.4639Z" fill="#FFFCF6"/>
<path d="M18.2912 20.3718C18.6164 19.9712 18.9684 19.7927 19.4335 19.9813C19.91 20.1745 20.0809 20.5542 20.0802 21.041C20.0787 22.1753 20.0884 23.3097 20.0765 24.4439C20.0694 25.1192 19.6679 25.5756 19.1125 25.5854C18.5618 25.5951 18.124 25.1376 18.1337 24.4641C18.1532 23.114 18.2162 21.7646 18.2912 20.3718Z" fill="#FFFCF6"/>
</g>
<defs>
<clipPath id="clip0_586_1034">
<rect width="34.1959" height="26.3148" fill="white" transform="translate(5.67078 9.45114)"/>
</clipPath>
</defs>
</svg>
