<svg width="1406" height="1406" viewBox="0 0 1406 1406" fill="none" xmlns="http://www.w3.org/2000/svg">
<g clip-path="url(#clip0_146_513)">
<path d="M1406 1075.31H0V1076.01H1406V1075.31Z" fill="#EBEBEB"/>
<path d="M1265.12 1120.55H1204.16V1121.26H1265.12V1120.55Z" fill="#EBEBEB"/>
<path d="M969.212 1105.99H873.295V1106.69H969.212V1105.99Z" fill="#EBEBEB"/>
<path d="M1240.43 1094.46H1115.21V1095.16H1240.43V1094.46Z" fill="#EBEBEB"/>
<path d="M486.532 1108.63H455.206V1109.33H486.532V1108.63Z" fill="#EBEBEB"/>
<path d="M430.152 1108.63H322.199V1109.33H430.152V1108.63Z" fill="#EBEBEB"/>
<path d="M264.356 1096.76H186.464V1097.47H264.356V1096.76Z" fill="#EBEBEB"/>
<path d="M666.444 949.893H123.475C119.221 949.886 115.144 948.191 112.139 945.181C109.134 942.17 107.446 938.091 107.446 933.837V170.576C107.483 166.347 109.187 162.303 112.189 159.323C115.19 156.343 119.245 154.667 123.475 154.66H666.444C670.702 154.66 674.786 156.352 677.797 159.363C680.809 162.374 682.5 166.458 682.5 170.716V933.837C682.5 938.095 680.809 942.18 677.797 945.191C674.786 948.202 670.702 949.893 666.444 949.893ZM123.475 155.222C119.408 155.23 115.51 156.851 112.636 159.729C109.763 162.608 108.149 166.509 108.149 170.576V933.837C108.149 937.904 109.763 941.805 112.636 944.684C115.51 947.562 119.408 949.183 123.475 949.19H666.444C670.513 949.183 674.414 947.563 677.292 944.685C680.17 941.808 681.79 937.907 681.797 933.837V170.576C681.79 166.506 680.17 162.605 677.292 159.727C674.414 156.85 670.513 155.23 666.444 155.222H123.475Z" fill="#EBEBEB"/>
<path d="M1274.71 949.893H731.71C727.454 949.886 723.374 948.192 720.365 945.182C717.355 942.173 715.661 938.093 715.654 933.837V170.576C715.698 166.344 717.409 162.3 720.414 159.321C723.42 156.342 727.478 154.667 731.71 154.66H1274.71C1278.93 154.675 1282.98 156.353 1285.98 159.333C1288.97 162.312 1290.67 166.352 1290.71 170.576V933.837C1290.71 938.086 1289.02 942.161 1286.02 945.171C1283.03 948.18 1278.96 949.879 1274.71 949.893ZM731.71 155.222C727.641 155.23 723.74 156.85 720.862 159.727C717.984 162.605 716.364 166.506 716.357 170.576V933.837C716.364 937.907 717.984 941.808 720.862 944.685C723.74 947.563 727.641 949.183 731.71 949.19H1274.71C1278.78 949.183 1282.68 947.563 1285.56 944.685C1288.43 941.808 1290.05 937.907 1290.06 933.837V170.576C1290.05 166.506 1288.43 162.605 1285.56 159.727C1282.68 156.85 1278.78 155.23 1274.71 155.222H731.71Z" fill="#EBEBEB"/>
<path d="M1240.09 442.665L1249.4 433.976L1245.72 426.637C1248.53 423.348 1251.06 419.83 1253.28 416.12L1261.43 417.329L1266.69 405.687L1260.45 400.372C1261.8 396.256 1262.78 392.032 1263.4 387.747L1271.42 385.75L1271.81 372.984L1263.99 370.453C1263.65 366.129 1262.95 361.841 1261.91 357.63L1268.52 352.709L1264.02 340.758L1255.84 341.405C1253.87 337.55 1251.58 333.864 1249.01 330.382L1253.25 323.352L1244.51 314.016L1237.2 317.756C1233.9 314.952 1230.38 312.422 1226.68 310.192L1227.86 302.037L1216.25 296.722L1210.9 302.993C1206.78 301.709 1202.56 300.768 1198.28 300.181L1196.28 292.195L1183.51 291.717L1180.96 299.59C1176.65 299.92 1172.38 300.616 1168.19 301.671L1163.3 295.063L1151.32 299.534L1151.99 307.745C1148.13 309.699 1144.44 311.986 1140.97 314.578L1133.88 310.332L1124.55 319.021L1128.17 326.192C1125.34 329.471 1122.8 332.99 1120.58 336.709L1112.46 335.5L1107.17 347.141L1113.44 352.484C1112.14 356.594 1111.2 360.809 1110.63 365.082L1102.59 367.078L1102.19 379.845L1110.04 382.376C1110.36 386.7 1111.04 390.99 1112.09 395.198L1105.45 400.091L1109.95 412.042L1118.16 411.424C1120.14 415.278 1122.42 418.965 1125 422.447L1120.75 429.477L1129.5 438.813L1136.81 435.073C1140.09 437.885 1143.61 440.416 1147.32 442.637L1146.11 450.764L1157.76 456.078L1163.1 449.836C1167.23 451.106 1171.45 452.047 1175.73 452.648L1177.72 460.634L1190.49 461.112L1193.05 453.238C1197.35 452.911 1201.63 452.215 1205.81 451.157L1210.71 457.765L1222.69 453.294L1222.04 445.083C1225.89 443.126 1229.57 440.84 1233.03 438.25L1240.09 442.665ZM1173.67 388.871C1171.22 386.24 1169.6 382.94 1169.02 379.388C1168.44 375.835 1168.93 372.191 1170.42 368.916C1171.91 365.641 1174.34 362.881 1177.4 360.988C1180.46 359.094 1184.01 358.15 1187.61 358.276C1191.21 358.402 1194.69 359.592 1197.61 361.695C1200.53 363.798 1202.76 366.721 1204.02 370.092C1205.28 373.464 1205.51 377.133 1204.68 380.636C1203.85 384.139 1202.01 387.318 1199.37 389.771C1197.63 391.419 1195.57 392.704 1193.32 393.552C1191.07 394.399 1188.68 394.793 1186.28 394.709C1183.88 394.625 1181.52 394.066 1179.33 393.064C1177.15 392.062 1175.19 390.637 1173.56 388.871H1173.67Z" fill="#EBEBEB"/>
<path d="M1078.23 296.16L1058.04 290.761L1052.64 270.571L1060.55 262.697L1068.87 279.935L1086.13 288.286L1078.23 296.16Z" fill="#E0E0E0"/>
<path d="M1079.47 282.662C1080.34 281.789 1081.04 280.752 1081.51 279.611C1081.98 278.47 1082.22 277.247 1082.22 276.012C1082.22 274.777 1081.98 273.554 1081.51 272.413C1081.04 271.272 1080.34 270.235 1079.47 269.362C1078.6 268.488 1077.56 267.796 1076.42 267.323C1075.28 266.85 1074.05 266.607 1072.82 266.607C1071.58 266.607 1070.36 266.85 1069.22 267.323C1068.08 267.796 1067.04 268.488 1066.17 269.362L1076.21 254.289L1089.65 261.094L1092.6 275.154L1079.47 282.662Z" fill="#E0E0E0"/>
<path d="M1058.94 264.328L1073.73 249.537L1093.87 254.908L1099.3 275.07L1084.5 289.861L1064.34 284.434L1058.94 264.328ZM1085.8 276.42C1087.11 275.102 1088.01 273.423 1088.37 271.596C1088.74 269.769 1088.55 267.875 1087.84 266.155C1087.12 264.434 1085.92 262.963 1084.37 261.929C1082.82 260.894 1081 260.342 1079.13 260.342C1077.27 260.342 1075.45 260.894 1073.9 261.929C1072.35 262.963 1071.14 264.434 1070.43 266.155C1069.72 267.875 1069.53 269.769 1069.89 271.596C1070.26 273.423 1071.15 275.102 1072.47 276.42C1074.25 278.167 1076.65 279.141 1079.15 279.131C1081.64 279.12 1084.03 278.126 1085.8 276.363V276.42Z" fill="#F0F0F0"/>
<path d="M253.699 834.349L264.525 831.424L267.421 820.598L263.203 816.38L258.732 825.631L249.453 830.102L253.699 834.349Z" fill="#E0E0E0"/>
<path d="M253.08 827.094C252.234 826.127 251.787 824.875 251.829 823.592C251.872 822.308 252.401 821.088 253.309 820.18C254.217 819.272 255.437 818.743 256.721 818.7C258.004 818.658 259.256 819.105 260.223 819.951L254.852 811.881L247.456 815.48L245.881 823.072L253.08 827.094Z" fill="#E0E0E0"/>
<path d="M264.047 817.224L256.117 809.294L245.291 812.106L242.479 822.932L250.268 830.946L261.094 828.134L264.047 817.224ZM249.649 823.719C249.128 823.263 248.706 822.704 248.409 822.078C248.112 821.452 247.948 820.771 247.925 820.079C247.902 819.386 248.021 818.696 248.276 818.052C248.53 817.407 248.914 816.822 249.404 816.332C249.894 815.842 250.48 815.458 251.124 815.203C251.769 814.949 252.458 814.829 253.151 814.852C253.844 814.875 254.524 815.04 255.15 815.337C255.776 815.633 256.335 816.056 256.792 816.577C257.638 817.543 258.085 818.795 258.042 820.079C258 821.362 257.471 822.582 256.563 823.49C255.654 824.398 254.435 824.927 253.151 824.97C251.867 825.012 250.615 824.565 249.649 823.719Z" fill="#F0F0F0"/>
<path d="M214.725 240.876L223.723 249.874C224.849 250.98 226.363 251.6 227.941 251.6C229.519 251.6 231.034 250.98 232.159 249.874C233.259 248.746 233.874 247.232 233.874 245.656C233.874 244.081 233.259 242.567 232.159 241.438L223.189 232.468C222.06 231.369 220.547 230.754 218.971 230.754C217.395 230.754 215.882 231.369 214.753 232.468C213.652 233.589 213.032 235.095 213.027 236.666C213.022 238.237 213.631 239.748 214.725 240.876Z" fill="#F0F0F0"/>
<path d="M208.398 218.521C210.746 217.868 213.234 217.915 215.555 218.656C217.877 219.397 219.932 220.8 221.468 222.692C223.003 224.585 223.953 226.885 224.199 229.309C224.446 231.734 223.98 234.178 222.857 236.341C221.734 238.504 220.004 240.293 217.879 241.486C215.754 242.68 213.327 243.227 210.896 243.061C208.464 242.894 206.134 242.022 204.192 240.549C202.25 239.077 200.779 237.07 199.962 234.774C199.443 233.153 199.25 231.446 199.393 229.75C199.537 228.054 200.014 226.403 200.798 224.892C201.582 223.382 202.658 222.041 203.962 220.947C205.266 219.854 206.774 219.029 208.398 218.521Z" fill="#E0E0E0"/>
<path d="M198.611 233.268L199.913 236.894L226.642 227.292L225.34 223.666L198.611 233.268Z" fill="#F0F0F0"/>
<path d="M243.857 339.268C241.045 326.867 242.283 316.462 247.625 307.97C252.968 299.478 261.685 293.91 274.086 291.098C286.487 288.286 297.201 289.411 305.581 294.641C313.96 299.872 319.641 308.701 322.453 320.793C324.438 328.256 324.602 336.087 322.931 343.626C321.296 349.888 317.842 355.524 313.004 359.823C307.259 364.661 300.363 367.934 292.983 369.328C285.748 371.249 278.173 371.508 270.824 370.087C264.436 368.535 258.658 365.107 254.234 360.245C248.947 354.316 245.362 347.068 243.857 339.268ZM267.309 334.037C269.053 341.686 271.724 346.86 275.324 349.56C277.182 350.799 279.271 351.649 281.466 352.06C283.661 352.47 285.916 352.433 288.097 351.95C290.277 351.466 292.337 350.547 294.153 349.247C295.969 347.947 297.503 346.294 298.663 344.386C300.688 340.477 300.716 334.262 298.804 325.798C297.173 318.656 294.539 313.763 290.902 311.12C289.071 309.805 286.968 308.919 284.749 308.524C282.53 308.13 280.251 308.239 278.079 308.842C275.906 309.249 273.853 310.144 272.075 311.459C270.297 312.774 268.841 314.475 267.815 316.434C265.735 320.568 265.538 326.192 267.309 334.037Z" fill="white"/>
<path d="M333.476 329.988C332.477 326.156 332.299 322.156 332.953 318.25C333.607 314.344 335.079 310.621 337.272 307.323C339.731 303.82 342.857 300.837 346.471 298.544C350.086 296.252 354.117 294.696 358.334 293.966C369.338 291.473 378.374 292.776 385.442 297.875C391.39 302.486 395.433 309.123 396.802 316.523C398.171 323.924 396.77 331.569 392.866 338.002C388.479 344.695 381.336 349.156 371.438 351.387C363.812 353.519 355.676 352.861 348.492 349.531C344.651 347.654 341.296 344.912 338.691 341.522C336.085 338.131 334.301 334.184 333.476 329.988ZM354.594 325.123C355.163 329.053 357.082 332.662 360.021 335.331C361.187 336.213 362.53 336.83 363.958 337.141C365.386 337.451 366.864 337.447 368.29 337.129C369.717 336.81 371.056 336.185 372.217 335.297C373.377 334.409 374.33 333.278 375.009 331.984C376.482 328.207 376.62 324.041 375.403 320.174C374.811 316.337 372.914 312.821 370.032 310.22C368.914 309.313 367.601 308.676 366.196 308.359C364.792 308.042 363.333 308.053 361.934 308.392C360.474 308.694 359.103 309.325 357.924 310.236C356.745 311.147 355.789 312.315 355.128 313.65C353.614 317.294 353.425 321.354 354.594 325.123Z" fill="white"/>
<path d="M417.807 361.539L400.57 285.615L420.254 281.116L422.11 289.242C423.498 286.001 425.515 283.067 428.043 280.609C430.817 278.255 434.131 276.622 437.688 275.857C440.976 274.963 444.435 274.911 447.748 275.708C451.061 276.504 454.119 278.122 456.641 280.413C462.199 285.608 465.969 292.43 467.411 299.9C469.492 309.039 468.873 316.519 465.611 322.396C464.06 325.206 461.916 327.645 459.328 329.543C456.74 331.442 453.77 332.755 450.623 333.391C447.592 334.109 444.45 334.233 441.372 333.756C438.419 333.239 435.605 332.119 433.105 330.466L439.066 356.702L417.807 361.539ZM427.959 308.504C428.475 312.016 430.231 315.228 432.908 317.559C433.982 318.381 435.227 318.95 436.552 319.222C437.876 319.495 439.245 319.465 440.556 319.134C441.774 318.89 442.917 318.363 443.894 317.596C444.871 316.829 445.654 315.844 446.18 314.719C447.376 311.2 447.376 307.384 446.18 303.865C445.666 300.335 443.971 297.084 441.372 294.641C440.408 293.84 439.272 293.272 438.053 292.979C436.835 292.687 435.565 292.678 434.342 292.954C433.05 293.233 431.838 293.8 430.796 294.613C429.754 295.427 428.909 296.465 428.324 297.65C426.948 301.116 426.818 304.953 427.959 308.504Z" fill="white"/>
<path d="M476.438 310.163L496.909 303.443C497.998 305.422 499.693 306.999 501.746 307.942C503.954 308.582 506.292 308.633 508.527 308.09C510.761 307.547 512.815 306.43 514.484 304.849C514.951 304.352 515.289 303.75 515.471 303.093C515.652 302.437 515.671 301.746 515.525 301.081C515.356 300.319 514.963 299.626 514.396 299.09C513.83 298.554 513.116 298.199 512.347 298.072C509.17 297.723 505.964 297.723 502.786 298.072C497.453 298.525 492.091 298.525 486.758 298.072C483.636 297.619 480.709 296.282 478.322 294.219C475.776 292.015 474.017 289.042 473.311 285.749C472.606 282.456 472.993 279.023 474.413 275.969C476.053 272.702 478.602 269.978 481.753 268.124C486.238 265.576 491.111 263.78 496.178 262.809C501.015 261.497 506.015 260.89 511.025 261.01C514.172 261.212 517.221 262.177 519.911 263.822C522.778 265.755 525.21 268.264 527.054 271.189L507.37 277.685C506.634 276.22 505.411 275.056 503.911 274.395C501.86 273.661 499.635 273.563 497.528 274.113C495.665 274.373 493.938 275.232 492.607 276.56C492.184 277.013 491.878 277.562 491.717 278.16C491.555 278.758 491.542 279.386 491.679 279.991C491.831 280.655 492.181 281.259 492.683 281.72C493.185 282.182 493.816 282.481 494.491 282.578C497.635 282.942 500.813 282.876 503.939 282.381C509.362 281.595 514.863 281.519 520.305 282.156C523.728 282.639 526.935 284.116 529.528 286.402C531.873 288.528 533.504 291.327 534.196 294.416C534.917 297.728 534.653 301.179 533.437 304.342C531.95 308.088 529.362 311.295 526.013 313.538C521.081 316.762 515.556 318.97 509.76 320.033C499.731 322.321 492.232 322.517 487.264 320.624C482.424 318.691 478.536 314.935 476.438 310.163Z" fill="white"/>
<path d="M545.106 240.623H568.193V258.338L563.947 293.966H549.662L545.106 258.395V240.623ZM546.231 299.337H567.771V318.403H546.231V299.337Z" fill="white"/>
<path d="M361.847 482.483H361.341C348.687 477.562 341.123 472.781 337.186 467.017C334.105 467.601 330.917 467.166 328.103 465.779C324.808 464.167 322.074 461.599 320.258 458.412C319.303 459.145 318.179 459.624 316.989 459.806C315.799 459.988 314.583 459.866 313.453 459.452C309.987 458.156 307.03 455.78 305.017 452.675C303.758 453.613 302.192 454.045 300.63 453.885C292.194 453.21 280.946 436.563 280.131 418.847C280.122 418.473 280.258 418.11 280.509 417.833C280.76 417.556 281.108 417.385 281.48 417.357C281.665 417.349 281.85 417.378 282.023 417.442C282.196 417.506 282.356 417.603 282.491 417.728C282.627 417.854 282.737 418.005 282.814 418.172C282.892 418.34 282.935 418.522 282.943 418.706C283.73 435.578 294.5 450.566 300.883 451.073C301.348 451.125 301.818 451.084 302.267 450.954C302.716 450.824 303.134 450.606 303.498 450.313C301.299 446.304 299.918 441.898 299.435 437.351C298.953 432.804 299.378 428.206 300.686 423.824C303.105 415.388 305.242 412.07 307.829 412.576C312.666 413.785 312.019 432.26 309.46 444.324C309.072 446.499 308.27 448.581 307.098 450.454C308.756 453.234 311.258 455.411 314.24 456.668C315.035 456.971 315.9 457.039 316.733 456.865C317.565 456.69 318.33 456.281 318.936 455.684C316.743 450.257 316.124 442.833 319.274 433.385C323.211 420.928 324.898 420.59 325.769 420.365C326.097 420.297 326.438 420.318 326.755 420.427C327.071 420.536 327.353 420.728 327.569 420.984C330.184 423.937 327.063 443.283 323.801 452.844C323.419 453.995 322.89 455.091 322.226 456.106C323.735 459.147 326.193 461.615 329.228 463.136C331.219 464.104 333.433 464.522 335.64 464.345C335.387 463.811 335.162 463.277 334.937 462.714C332.715 456.668 333.812 449.723 338.283 441.399C341.235 435.916 343.654 433.329 345.903 433.329C346.501 433.337 347.083 433.516 347.581 433.845C348.08 434.174 348.473 434.639 348.715 435.185C351.162 439.712 349.39 454.644 344.554 462.067C343.421 463.769 341.846 465.13 339.998 466.004C343.766 470.953 350.937 475.312 362.494 479.755C362.668 479.817 362.827 479.914 362.962 480.039C363.097 480.164 363.206 480.315 363.282 480.483C363.358 480.65 363.4 480.832 363.404 481.016C363.409 481.2 363.377 481.383 363.31 481.555C363.2 481.848 362.998 482.097 362.734 482.264C362.47 482.432 362.159 482.508 361.847 482.483ZM345.875 436.169C345.875 436.169 344.272 436.169 340.729 442.777C336.652 450.313 335.611 456.528 337.552 461.758C337.787 462.406 338.069 463.035 338.395 463.642C339.919 463.013 341.213 461.934 342.107 460.549C346.044 454.531 347.928 442.158 346.466 437.322C346.269 436.338 345.875 436.169 345.875 436.169ZM325.685 424.33C324.163 427.532 322.903 430.852 321.917 434.257C319.76 440.158 319.389 446.564 320.848 452.675L321.102 451.944C324.054 443.031 325.629 433.719 325.769 424.33H325.685ZM307.182 415.473C306.704 415.894 305.326 417.666 303.386 424.527C301.091 432.227 301.815 440.513 305.411 447.698C305.988 446.441 306.412 445.119 306.676 443.761C309.685 429.954 308.841 417.469 307.267 415.473H307.182Z" fill="#263238"/>
<path d="M468.759 629.888C464.264 629.931 459.838 628.776 455.937 626.542C455.616 626.349 455.383 626.037 455.288 625.675C455.194 625.312 455.245 624.927 455.431 624.602C455.523 624.443 455.647 624.305 455.794 624.194C455.94 624.084 456.108 624.005 456.286 623.96C456.464 623.915 456.649 623.907 456.831 623.935C457.012 623.963 457.186 624.027 457.343 624.123C467.382 630.001 480.345 625.895 483.016 621.593C483.209 621.323 483.346 621.017 483.418 620.694C483.491 620.37 483.498 620.035 483.438 619.709C478.304 620.004 473.222 618.557 469.012 615.603C461.842 611.132 461.279 609.782 461.336 608.714C461.349 608.407 461.445 608.109 461.614 607.852C461.782 607.595 462.016 607.387 462.292 607.251C465.104 605.845 477.786 611.666 483.072 615.153C483.706 615.574 484.291 616.065 484.816 616.615C486.893 616.144 488.765 615.021 490.159 613.41C490.943 612.488 491.51 611.402 491.818 610.232H491.255C486.756 610.682 482.257 608.742 477.448 604.299C474.13 601.262 472.865 599.153 473.287 597.494C473.414 597.028 473.673 596.608 474.032 596.284C474.391 595.96 474.835 595.746 475.311 595.666C479.192 594.682 488.809 598.787 492.718 603.09C493.589 604.025 494.209 605.167 494.517 606.408C498.201 604.693 502.082 600.784 506.665 594.401C506.772 594.249 506.907 594.119 507.064 594.02C507.221 593.92 507.396 593.853 507.579 593.822C507.762 593.79 507.949 593.796 508.13 593.837C508.311 593.878 508.482 593.955 508.634 594.063C508.935 594.283 509.138 594.612 509.201 594.979C509.264 595.346 509.182 595.724 508.971 596.032C503.656 603.455 499.213 607.673 494.77 609.389C494.54 611.467 493.688 613.427 492.324 615.013C490.704 616.895 488.575 618.272 486.194 618.978C486.328 619.649 486.327 620.34 486.192 621.011C486.057 621.682 485.79 622.319 485.406 622.886C483.044 626.907 476.239 629.888 468.759 629.888ZM466.257 610.373C467.213 611.076 468.563 612.004 470.503 613.185C473.526 615.224 477.001 616.498 480.626 616.897C476.1 614.183 471.279 611.994 466.257 610.373ZM476.071 598.422C476.879 599.943 478 601.275 479.361 602.33C483.522 606.183 487.319 607.954 490.974 607.505H491.874C491.674 606.631 491.247 605.826 490.637 605.171C486.7 600.728 478.039 597.972 476.071 598.422Z" fill="#263238"/>
<path d="M505.991 626.036L462.18 633.993L422.39 416.851L337.862 432.204L200.074 676.848L214.865 757.581L391.599 725.496L403.691 791.522L488.219 776.112L476.128 710.086L519.939 702.128L505.991 626.036ZM284.265 666.444L357.377 538.301L377.764 649.488L284.265 666.444Z" fill="#38D0CF"/>
<path d="M858.869 402.116C857.538 388.466 854.516 375.034 849.871 362.129C845.092 349.768 838.454 338.209 830.187 327.851C820.4 315.8 808.245 305.885 794.474 298.719C779.477 290.489 759.587 284.762 734.804 281.537C683.344 274.826 643.245 283.956 614.506 308.926C585.768 333.897 566.834 381.701 557.704 452.338C554.059 478.737 553.116 505.44 554.892 532.03C556.767 556.401 561.247 576.019 568.333 590.885C577.351 610.933 591.576 628.198 609.529 640.883C627.282 653.349 651.653 661.588 682.641 665.6C737.719 672.78 778.558 662.198 805.16 633.853C831.761 605.508 849.383 557.61 858.026 490.16C861.867 460.954 862.15 431.39 858.869 402.116Z" fill="#38D0CF"/>
<path d="M707.978 636.721C701.201 636.496 693.918 635.877 686.578 634.921C660.82 631.575 640.911 625.051 627.358 615.547C613.841 606.002 603.153 592.983 596.426 577.866L596.285 577.557C590.886 566.309 587.343 550.14 585.796 529.753C584.158 505.264 585.025 480.672 588.383 456.359C598.422 378.411 619.146 345.876 634.753 332.322C652.975 316.519 677.58 309.376 709.918 310.501C716.554 310.726 723.584 311.316 730.811 312.244C751.564 315.056 768.014 319.556 779.655 325.911C789.715 331.091 798.621 338.256 805.835 346.973C812.148 354.845 817.221 363.636 820.879 373.04C824.615 383.526 827.033 394.436 828.078 405.518C831.077 432.372 830.803 459.491 827.263 486.279C819.473 546.849 804.401 589.423 782.496 612.819C766.242 630.141 741.862 638.127 707.949 636.833L707.978 636.721Z" fill="#263238"/>
<path d="M763.008 402.931L763.373 392.273L756.821 390.136C756.542 386.532 755.959 382.957 755.078 379.451L760.702 375.345L756.934 365.334L750.072 365.897C748.459 362.68 746.578 359.604 744.448 356.702L747.992 350.768L740.68 342.979L734.55 346.129C731.807 343.77 728.873 341.645 725.777 339.773L726.761 332.968L717.031 328.554L712.588 333.784C709.148 332.669 705.621 331.841 702.043 331.309L700.384 324.645L689.699 324.279L687.59 330.803C683.986 331.092 680.412 331.675 676.904 332.547L672.771 326.923L662.76 330.663L663.322 337.524C660.106 339.139 657.03 341.02 654.127 343.148L648.222 339.577L640.404 346.86L643.554 353.018C641.189 355.759 639.072 358.704 637.227 361.819L630.422 360.779L625.979 370.509L631.237 374.952C630.096 378.394 629.268 381.933 628.763 385.525L622.07 387.212L621.705 397.841L628.257 399.978C628.531 403.593 629.114 407.177 630 410.692L624.376 414.769L628.144 424.78L635.005 424.218C636.603 427.444 638.485 430.521 640.629 433.413L637.058 439.346L644.369 447.136L650.499 444.014C653.243 446.363 656.178 448.48 659.273 450.341L658.261 457.146L667.99 461.561L672.461 456.359C675.911 457.468 679.448 458.286 683.034 458.805L684.693 465.498L695.351 465.863L697.46 459.312C701.074 459.037 704.659 458.454 708.174 457.568L712.251 463.192L722.262 459.452L721.727 452.619C724.933 450.983 728.007 449.103 730.923 446.995L736.828 450.538L744.645 443.255L741.524 437.097C743.88 434.365 745.988 431.429 747.823 428.323L754.628 429.336L759.071 419.606L753.84 415.163C754.959 411.725 755.778 408.197 756.287 404.618L763.008 402.931ZM691.02 437.434C682.692 437.13 674.64 434.365 667.881 429.489C661.122 424.612 655.959 417.843 653.044 410.035C650.13 402.227 649.593 393.73 651.503 385.618C653.412 377.505 657.682 370.14 663.774 364.452C669.866 358.764 677.506 355.009 685.73 353.659C693.954 352.309 702.394 353.426 709.984 356.869C717.574 360.312 723.974 365.926 728.376 373.003C732.779 380.08 734.986 388.302 734.719 396.632C734.541 402.184 733.268 407.647 730.974 412.706C728.679 417.765 725.407 422.321 721.347 426.112C717.287 429.904 712.517 432.855 707.313 434.798C702.109 436.741 696.572 437.637 691.02 437.434Z" fill="#38D0CF"/>
<path opacity="0.3" d="M807.381 598.59L808.168 591.391L803.838 589.648C803.831 587.198 803.624 584.753 803.219 582.337L807.128 579.834L805.131 572.888H800.463C799.54 570.629 798.421 568.456 797.117 566.393L799.76 562.568L795.261 556.944L790.959 558.744C789.215 557.019 787.335 555.439 785.335 554.02L786.375 549.464L780.048 545.978L776.73 549.324C774.47 548.394 772.138 547.651 769.756 547.102L768.969 542.519L761.798 541.703L760.027 546.034C757.584 546.045 755.147 546.271 752.744 546.709L750.241 542.716L743.295 544.768V549.436C741.036 550.37 738.862 551.499 736.8 552.811L732.975 549.999L727.351 554.498L729.151 558.8C727.437 560.545 725.866 562.426 724.455 564.424L719.9 563.412L716.441 569.739L719.759 573.029C718.816 575.294 718.073 577.637 717.537 580.031L712.926 580.79L712.167 587.961L716.469 589.76C716.471 592.193 716.687 594.621 717.116 597.015L713.151 599.518L715.175 606.464H719.871C720.81 608.712 721.939 610.875 723.246 612.931L720.434 616.756L724.933 622.38L729.292 620.552C731.022 622.282 732.904 623.854 734.916 625.248L733.931 629.888L740.258 633.346L743.548 630.056C745.811 630.965 748.143 631.689 750.522 632.222L751.338 636.833L758.508 637.621L760.252 633.318C762.739 633.315 765.222 633.108 767.675 632.7L770.178 636.665L777.096 634.64V629.972C779.356 629.022 781.538 627.894 783.619 626.598L787.388 629.41L793.012 624.882L791.184 620.58C792.916 618.836 794.505 616.955 795.936 614.956L800.463 615.968L803.95 609.641L800.632 606.379C801.536 604.115 802.26 601.784 802.797 599.406L807.381 598.59ZM771.19 595.778C770 597.955 768.192 599.731 765.992 600.879C763.793 602.028 761.303 602.499 758.836 602.232C756.369 601.965 754.037 600.973 752.135 599.38C750.232 597.787 748.845 595.666 748.148 593.285C747.452 590.904 747.477 588.369 748.221 586.002C748.965 583.635 750.394 581.542 752.328 579.988C754.262 578.434 756.614 577.488 759.085 577.27C761.557 577.053 764.037 577.573 766.213 578.766C769.122 580.368 771.278 583.057 772.211 586.245C773.144 589.433 772.777 592.86 771.19 595.778Z" fill="#38D0CF"/>
<path d="M847.227 477.056L838.791 471.263C837.961 468.251 836.831 465.331 835.417 462.546L837.554 454.11L825.406 441.09L816.97 442.665C814.294 441.072 811.469 439.744 808.534 438.7L803.332 429.926L785.532 429.336L779.739 437.772C776.724 438.589 773.802 439.72 771.022 441.146L762.586 438.981L749.567 451.157L751.141 459.593C749.525 462.257 748.196 465.085 747.176 468.029L738.431 473.231L737.812 491.031L746.248 496.824C747.066 499.858 748.197 502.798 749.623 505.597L747.486 514.033L759.634 527.053L768.07 525.506C770.747 527.097 773.572 528.425 776.506 529.471L781.68 538.217L799.508 538.835L805.272 530.399C808.312 529.574 811.261 528.444 814.074 527.025L822.51 529.162L835.53 517.014L833.983 508.578C835.581 505.905 836.909 503.079 837.948 500.142L846.693 494.94L847.227 477.056ZM791.747 504.107C787.789 503.971 783.96 502.665 780.745 500.353C777.53 498.041 775.073 494.828 773.684 491.119C772.295 487.411 772.037 483.374 772.943 479.518C773.848 475.663 775.877 472.163 778.772 469.461C781.667 466.759 785.298 464.976 789.206 464.338C793.114 463.699 797.124 464.234 800.728 465.875C804.333 467.516 807.369 470.188 809.454 473.555C811.54 476.922 812.58 480.831 812.443 484.789C812.252 490.092 809.967 495.104 806.087 498.725C802.208 502.346 797.051 504.282 791.747 504.107Z" fill="white"/>
<path d="M908.276 334.965L909.738 331.45C910.732 330.89 911.673 330.241 912.55 329.51H915.812L919.636 323.886L918.399 320.877C918.872 319.875 919.249 318.83 919.524 317.756L922.336 315.169L921.155 308.561L917.612 307.098C917.056 306.101 916.406 305.16 915.671 304.286V301.024L910.188 297.2L907.151 298.466C906.041 298.075 904.89 297.81 903.72 297.678L901.133 294.866L894.553 296.047L893.063 299.59C892.019 300.131 891.031 300.772 890.11 301.503H886.876L883.052 307.127L884.289 310.135C883.911 311.249 883.648 312.399 883.502 313.566L880.69 316.181L881.871 322.761L885.414 324.223C885.95 325.226 886.591 326.168 887.326 327.035V330.269L892.95 334.094L895.959 332.856C897.084 333.222 898.243 333.476 899.418 333.616L902.005 336.428L908.276 334.965ZM894.216 316.744C893.95 315.276 894.125 313.763 894.719 312.396C895.314 311.028 896.3 309.868 897.555 309.061C898.809 308.255 900.274 307.838 901.765 307.865C903.256 307.891 904.705 308.359 905.93 309.21C907.155 310.06 908.1 311.255 908.645 312.643C909.19 314.031 909.312 315.549 908.994 317.006C908.676 318.463 907.933 319.793 906.859 320.827C905.785 321.862 904.429 322.554 902.961 322.817C900.997 323.162 898.976 322.717 897.339 321.58C895.701 320.442 894.579 318.704 894.216 316.744Z" fill="#38D0CF"/>
<path d="M831.255 316.322L829.09 314.494C833.73 308.739 839.464 303.96 845.962 300.434L847.283 302.909C841.104 306.273 835.656 310.832 831.255 316.322Z" fill="#38D0CF"/>
<path d="M853.694 300.322L852.598 297.734C862.982 293.222 874.337 291.404 885.611 292.448L885.329 295.26C874.526 294.242 863.641 295.983 853.694 300.322Z" fill="#38D0CF"/>
<path d="M848.38 319.78L846.074 318.206C852.849 309.057 862.709 302.674 873.829 300.237L874.363 303.049C863.971 305.318 854.746 311.259 848.38 319.78Z" fill="#38D0CF"/>
<path d="M661.776 590.52C661.393 590.508 661.029 590.347 660.764 590.07L654.887 583.996C651.89 583.724 648.925 583.178 646.029 582.365L636.834 586.414C636.631 586.525 636.404 586.583 636.173 586.583C635.942 586.583 635.715 586.525 635.512 586.414L620.102 576.207C619.904 576.076 619.742 575.895 619.634 575.683C619.525 575.472 619.474 575.235 619.484 574.997V564.987C617.603 562.634 615.946 560.111 614.534 557.451L606.633 554.414C606.411 554.328 606.215 554.187 606.063 554.006C605.911 553.824 605.807 553.606 605.761 553.373L602.105 535.264C602.057 535.033 602.068 534.793 602.137 534.567C602.205 534.341 602.33 534.135 602.499 533.97L608.573 528.093C608.863 525.1 609.409 522.136 610.204 519.235L606.155 510.04C606.044 509.838 605.986 509.61 605.986 509.379C605.986 509.148 606.044 508.921 606.155 508.719L616.362 493.309C616.489 493.106 616.668 492.941 616.881 492.832C617.094 492.723 617.333 492.674 617.571 492.69L627.582 492.831C629.928 490.941 632.452 489.283 635.118 487.882L638.183 479.98C638.264 479.761 638.4 479.566 638.577 479.413C638.754 479.261 638.967 479.156 639.196 479.108L657.305 475.453C657.536 475.402 657.777 475.411 658.003 475.48C658.23 475.549 658.435 475.675 658.599 475.846L664.476 481.92C667.481 482.194 670.455 482.74 673.362 483.551L682.529 479.502C682.736 479.391 682.968 479.333 683.204 479.333C683.439 479.333 683.671 479.391 683.878 479.502L699.26 489.709C699.455 489.846 699.615 490.027 699.728 490.237C699.84 490.447 699.901 490.68 699.907 490.919L699.738 500.929C701.628 503.281 703.294 505.804 704.715 508.465L712.589 511.531C712.808 511.612 713.003 511.747 713.156 511.924C713.308 512.101 713.413 512.314 713.461 512.543L717.144 530.652C717.188 530.884 717.175 531.122 717.106 531.347C717.037 531.572 716.916 531.778 716.751 531.946L710.649 537.851C710.368 540.837 709.822 543.791 709.018 546.681L713.067 555.876C713.178 556.083 713.236 556.315 713.236 556.551C713.236 556.786 713.178 557.018 713.067 557.226L703 572.495C702.868 572.686 702.691 572.842 702.486 572.95C702.28 573.057 702.051 573.114 701.819 573.113L691.78 572.973C689.426 574.837 686.914 576.493 684.272 577.922L681.207 585.824C681.124 586.046 680.984 586.244 680.802 586.396C680.619 586.549 680.401 586.652 680.167 586.695L662.057 590.52H661.776ZM645.945 579.272C646.075 579.246 646.208 579.246 646.338 579.272C649.375 580.156 652.493 580.731 655.646 580.987C655.984 581.027 656.299 581.175 656.546 581.409L662.17 587.314L678.761 583.968L681.741 576.263C681.88 575.951 682.117 575.694 682.416 575.532C685.225 574.079 687.874 572.336 690.318 570.329C690.576 570.112 690.908 570.001 691.246 570.02L701.003 570.161L710.339 556.101L706.403 547.159C706.291 546.85 706.291 546.511 706.403 546.203C707.272 543.162 707.847 540.045 708.118 536.895C708.147 536.554 708.296 536.235 708.54 535.995L714.445 530.371L711.099 513.78L703.422 510.799C703.092 510.679 702.82 510.438 702.663 510.125C701.203 507.32 699.46 504.672 697.46 502.223C697.26 501.966 697.151 501.649 697.151 501.323V491.537L683.091 482.201L674.177 486.138C673.859 486.252 673.511 486.252 673.193 486.138C670.145 485.258 667.018 484.684 663.857 484.423C663.519 484.383 663.204 484.235 662.957 484.001L657.333 478.096L640.742 481.47L637.79 489.288C637.672 489.61 637.442 489.879 637.143 490.047C634.323 491.496 631.665 493.239 629.213 495.249C629.092 495.359 628.95 495.443 628.795 495.496C628.64 495.549 628.476 495.57 628.313 495.558L618.556 495.418L609.192 509.478L613.128 518.42C613.218 518.609 613.265 518.815 613.265 519.025C613.265 519.234 613.218 519.44 613.128 519.629C612.295 522.598 611.749 525.639 611.498 528.712C611.471 529.053 611.321 529.373 611.076 529.612L605.171 535.236L608.545 551.827L616.194 554.807C616.535 554.949 616.814 555.208 616.981 555.538C618.431 558.325 620.165 560.954 622.155 563.384C622.364 563.636 622.474 563.956 622.464 564.284V574.069L636.524 583.405L645.466 579.468C645.613 579.375 645.775 579.308 645.945 579.272ZM659.751 570.161C652.983 570.155 646.343 568.315 640.536 564.836C634.73 561.358 629.975 556.371 626.776 550.407C623.577 544.442 622.055 537.721 622.37 530.96C622.685 524.199 624.826 517.65 628.566 512.009C632.144 506.596 637.064 502.205 642.847 499.265C648.629 496.324 655.076 494.935 661.557 495.232C668.038 495.53 674.33 497.505 679.819 500.963C685.308 504.421 689.805 509.245 692.871 514.962C695.937 520.679 697.467 527.094 697.31 533.58C697.154 540.065 695.317 546.399 691.979 551.962C688.642 557.525 683.917 562.127 678.268 565.317C672.619 568.506 666.239 570.176 659.751 570.161ZM630.928 513.555C627.143 519.266 625.137 525.971 625.162 532.822C625.187 539.673 627.243 546.363 631.07 552.046C634.897 557.729 640.323 562.149 646.662 564.748C653.002 567.348 659.969 568.009 666.684 566.649C673.399 565.288 679.56 561.968 684.387 557.106C689.215 552.245 692.493 546.061 693.807 539.337C695.12 532.613 694.411 525.65 691.768 519.329C689.125 513.008 684.667 507.613 678.957 503.826C675.171 501.292 670.921 499.532 666.451 498.65C661.981 497.767 657.381 497.778 652.916 498.683C648.45 499.587 644.208 501.367 640.435 503.92C636.661 506.473 633.43 509.747 630.928 513.555Z" fill="white"/>
<path d="M1197.43 651.399L1153.29 645.438L1182.47 426.636L1097.33 415.163L890.785 605.311L879.931 686.662L1057.9 710.676L1049.02 777.236L1134.16 788.709L1143.05 722.178L1187.2 728.139L1197.43 651.399ZM974.105 621.255L1083.1 521.907L1068.14 633.937L974.105 621.255Z" fill="#38D0CF"/>
<path d="M1108.29 786.628H1107.93C1107.56 786.56 1107.24 786.35 1107.03 786.045C1106.82 785.739 1106.74 785.363 1106.8 784.998L1172.6 425.23C1172.68 424.869 1172.89 424.55 1173.19 424.341C1173.5 424.131 1173.87 424.047 1174.23 424.105C1174.6 424.174 1174.92 424.384 1175.13 424.689C1175.34 424.995 1175.42 425.371 1175.36 425.736L1109.7 785.476C1109.63 785.801 1109.46 786.093 1109.2 786.303C1108.95 786.513 1108.62 786.628 1108.29 786.628Z" fill="#263238"/>
<path d="M1166.5 431.276C1166.48 431.888 1166.22 432.465 1165.77 432.882C1165.32 433.298 1164.72 433.52 1164.11 433.498C1163.5 433.475 1162.92 433.211 1162.51 432.762C1162.09 432.314 1161.87 431.719 1161.89 431.107C1161.91 430.496 1162.18 429.918 1162.63 429.502C1163.07 429.085 1163.67 428.863 1164.28 428.886C1164.89 428.908 1165.47 429.173 1165.89 429.621C1166.3 430.069 1166.52 430.664 1166.5 431.276Z" fill="#263238"/>
<path d="M1157.14 479.924C1157.12 480.379 1156.97 480.82 1156.7 481.189C1156.43 481.558 1156.06 481.84 1155.64 481.999C1155.21 482.158 1154.74 482.187 1154.3 482.081C1153.86 481.976 1153.45 481.742 1153.14 481.408C1152.83 481.074 1152.63 480.655 1152.56 480.205C1152.48 479.755 1152.55 479.293 1152.74 478.879C1152.93 478.464 1153.23 478.115 1153.62 477.876C1154.01 477.636 1154.46 477.517 1154.92 477.533C1155.22 477.544 1155.52 477.615 1155.79 477.741C1156.07 477.867 1156.32 478.046 1156.52 478.268C1156.73 478.49 1156.89 478.751 1156.99 479.035C1157.1 479.319 1157.15 479.621 1157.14 479.924Z" fill="#263238"/>
<path d="M1147.77 528.656C1147.76 528.959 1147.69 529.257 1147.57 529.532C1147.44 529.808 1147.26 530.056 1147.04 530.262C1146.82 530.469 1146.56 530.629 1146.27 530.735C1145.99 530.84 1145.69 530.889 1145.38 530.877C1145.08 530.87 1144.78 530.803 1144.51 530.68C1144.23 530.557 1143.99 530.381 1143.78 530.161C1143.57 529.941 1143.41 529.682 1143.31 529.4C1143.2 529.117 1143.15 528.817 1143.16 528.515C1143.17 528.21 1143.24 527.909 1143.36 527.63C1143.49 527.352 1143.66 527.1 1143.89 526.891C1144.11 526.682 1144.37 526.519 1144.66 526.411C1144.94 526.304 1145.25 526.254 1145.55 526.266C1146.16 526.295 1146.73 526.561 1147.15 527.008C1147.57 527.455 1147.79 528.046 1147.77 528.656Z" fill="#263238"/>
<path d="M1129.33 579.272C1129.26 579.836 1129 580.357 1128.57 580.736C1128.15 581.114 1127.6 581.324 1127.04 581.324C1126.47 581.324 1125.92 581.114 1125.5 580.736C1125.08 580.357 1124.81 579.836 1124.74 579.272C1124.71 578.95 1124.74 578.624 1124.84 578.315C1124.94 578.006 1125.1 577.721 1125.32 577.48C1125.53 577.238 1125.8 577.045 1126.09 576.913C1126.39 576.78 1126.71 576.712 1127.04 576.712C1127.36 576.712 1127.68 576.78 1127.98 576.913C1128.27 577.045 1128.54 577.238 1128.75 577.48C1128.97 577.721 1129.13 578.006 1129.23 578.315C1129.33 578.624 1129.36 578.95 1129.33 579.272Z" fill="#263238"/>
<path d="M1129.02 625.867C1129.01 626.171 1128.94 626.47 1128.82 626.748C1128.69 627.025 1128.51 627.275 1128.29 627.482C1128.07 627.689 1127.81 627.849 1127.52 627.953C1127.23 628.057 1126.93 628.103 1126.63 628.088C1126.17 628.071 1125.73 627.919 1125.36 627.652C1124.99 627.385 1124.71 627.014 1124.55 626.587C1124.39 626.16 1124.36 625.695 1124.47 625.251C1124.57 624.808 1124.81 624.405 1125.14 624.095C1125.48 623.784 1125.9 623.58 1126.35 623.507C1126.8 623.435 1127.26 623.497 1127.67 623.687C1128.09 623.877 1128.44 624.185 1128.68 624.573C1128.91 624.961 1129.03 625.411 1129.02 625.867Z" fill="#263238"/>
<path d="M1119.65 674.514C1119.64 674.971 1119.5 675.414 1119.23 675.788C1118.97 676.161 1118.6 676.447 1118.17 676.61C1117.74 676.773 1117.28 676.806 1116.83 676.704C1116.39 676.601 1115.98 676.369 1115.67 676.036C1115.36 675.703 1115.15 675.284 1115.07 674.833C1115 674.382 1115.06 673.919 1115.25 673.503C1115.44 673.087 1115.75 672.736 1116.14 672.496C1116.52 672.255 1116.98 672.135 1117.43 672.152C1118.04 672.174 1118.61 672.434 1119.03 672.877C1119.44 673.319 1119.67 673.907 1119.65 674.514Z" fill="#263238"/>
<path d="M1110.29 723.162C1110.27 723.776 1110 724.356 1109.56 724.778C1109.11 725.199 1108.51 725.426 1107.9 725.411C1107.6 725.4 1107.3 725.33 1107.02 725.204C1106.75 725.078 1106.5 724.899 1106.29 724.677C1106.09 724.455 1105.93 724.194 1105.82 723.91C1105.72 723.626 1105.67 723.324 1105.68 723.021C1105.69 722.718 1105.76 722.42 1105.88 722.144C1106 721.868 1106.18 721.619 1106.4 721.411C1106.62 721.204 1106.88 721.041 1107.17 720.934C1107.45 720.827 1107.75 720.776 1108.05 720.785C1108.36 720.795 1108.65 720.863 1108.93 720.988C1109.21 721.112 1109.46 721.29 1109.66 721.511C1109.87 721.731 1110.03 721.991 1110.14 722.274C1110.25 722.557 1110.3 722.859 1110.29 723.162Z" fill="#263238"/>
<path d="M1100.9 771.838C1100.88 772.293 1100.73 772.733 1100.46 773.103C1100.19 773.472 1099.82 773.754 1099.4 773.913C1098.97 774.072 1098.5 774.1 1098.06 773.995C1097.62 773.89 1097.21 773.655 1096.9 773.321C1096.59 772.987 1096.39 772.569 1096.32 772.119C1096.24 771.669 1096.31 771.207 1096.5 770.793C1096.69 770.378 1096.99 770.029 1097.38 769.789C1097.77 769.55 1098.22 769.431 1098.68 769.447C1098.98 769.454 1099.28 769.522 1099.56 769.647C1099.83 769.772 1100.08 769.951 1100.29 770.174C1100.5 770.396 1100.66 770.659 1100.76 770.944C1100.87 771.23 1100.91 771.534 1100.9 771.838Z" fill="#263238"/>
<path d="M1127.02 580.537C1126.7 580.537 1126.4 580.428 1126.15 580.229C1125.91 580.029 1125.74 579.75 1125.67 579.44C1125.63 579.259 1125.63 579.072 1125.66 578.889C1125.69 578.706 1125.76 578.531 1125.85 578.374C1125.95 578.217 1126.08 578.082 1126.24 577.975C1126.39 577.868 1126.56 577.793 1126.74 577.753L1133.71 576.263C1133.9 576.222 1134.09 576.218 1134.27 576.251C1134.46 576.284 1134.63 576.354 1134.79 576.456C1134.95 576.558 1135.08 576.69 1135.19 576.846C1135.29 577.001 1135.36 577.176 1135.4 577.359C1135.44 577.54 1135.44 577.727 1135.4 577.908C1135.37 578.089 1135.3 578.262 1135.2 578.416C1135.09 578.57 1134.96 578.703 1134.81 578.806C1134.66 578.909 1134.49 578.982 1134.3 579.019L1127.33 580.509L1127.02 580.537Z" fill="#263238"/>
<path d="M1150.33 554.639C1147.02 563.242 1144.2 572.031 1141.9 580.959C1139.79 590.886 1139.68 613.1 1139.68 613.1" fill="#263238"/>
<path d="M1139.68 614.506C1139.3 614.492 1138.95 614.335 1138.69 614.068C1138.43 613.802 1138.28 613.445 1138.27 613.072C1138.27 612.172 1138.44 590.576 1140.55 580.678C1142.84 571.671 1145.65 562.808 1148.98 554.132C1149.04 553.947 1149.13 553.776 1149.26 553.629C1149.38 553.482 1149.54 553.362 1149.71 553.277C1149.89 553.192 1150.08 553.145 1150.27 553.136C1150.46 553.128 1150.66 553.16 1150.84 553.23C1151.02 553.3 1151.18 553.406 1151.32 553.542C1151.46 553.678 1151.56 553.841 1151.63 554.021C1151.71 554.201 1151.74 554.393 1151.73 554.587C1151.73 554.78 1151.68 554.97 1151.6 555.145C1148.28 563.682 1145.47 572.405 1143.16 581.268C1141.11 590.941 1140.97 612.875 1140.94 613.1C1140.94 613.45 1140.81 613.788 1140.58 614.048C1140.35 614.308 1140.02 614.471 1139.68 614.506Z" fill="#263238"/>
<path d="M625.53 857.21C629.438 794.221 622.268 679.688 740.681 694.873C867.587 711.098 831.284 859.516 831.284 859.516L625.53 857.21Z" fill="#263238"/>
<path d="M707.247 819.36C735.792 819.36 758.932 796.22 758.932 767.676C758.932 739.131 735.792 715.991 707.247 715.991C678.702 715.991 655.562 739.131 655.562 767.676C655.562 796.22 678.702 819.36 707.247 819.36Z" fill="white"/>
<path d="M714.051 716.076C689.558 711.914 663.435 729.939 660.82 748.217L757.862 757.159C754.431 736.322 733.454 719.394 714.051 716.076Z" fill="#263238"/>
<path d="M746.812 766.382C746.109 779.908 738.742 790.509 730.362 790.059C721.982 789.609 715.739 778.333 716.302 764.751C716.864 751.169 724.372 740.624 732.752 741.074C741.132 741.524 747.487 752.884 746.812 766.382Z" fill="#263238"/>
<path d="M707.247 822.172C696.469 822.172 685.932 818.976 676.97 812.988C668.008 807 661.024 798.489 656.899 788.531C652.774 778.573 651.695 767.615 653.798 757.044C655.9 746.473 661.091 736.762 668.712 729.141C676.334 721.519 686.044 716.329 696.615 714.226C707.187 712.124 718.144 713.203 728.102 717.328C738.06 721.452 746.571 728.437 752.559 737.399C758.547 746.361 761.744 756.897 761.744 767.676C761.729 782.125 755.982 795.977 745.766 806.194C735.549 816.411 721.696 822.157 707.247 822.172ZM707.247 718.831C697.58 718.831 688.13 721.698 680.092 727.07C672.054 732.441 665.79 740.076 662.092 749.008C658.394 757.94 657.428 767.768 659.316 777.249C661.204 786.73 665.861 795.438 672.699 802.272C679.537 809.106 688.248 813.758 697.73 815.641C707.212 817.523 717.039 816.552 725.969 812.848C734.899 809.145 742.53 802.876 747.897 794.836C753.264 786.795 756.125 777.343 756.12 767.676C756.105 754.721 750.95 742.302 741.787 733.144C732.624 723.986 720.202 718.839 707.247 718.831Z" fill="#38D0CF"/>
<path opacity="0.3" d="M816.858 855.635H816.521C816.34 855.596 816.169 855.52 816.018 855.413C815.868 855.306 815.74 855.17 815.643 855.013C815.546 854.855 815.481 854.68 815.453 854.497C815.425 854.314 815.435 854.127 815.481 853.948C815.481 853.583 824.535 815.452 815.227 776.899C815.138 776.526 815.2 776.133 815.401 775.806C815.601 775.479 815.923 775.245 816.296 775.156C816.669 775.066 817.062 775.129 817.389 775.329C817.716 775.529 817.95 775.852 818.039 776.224C827.516 815.592 818.377 854.229 818.293 854.595C818.209 854.907 818.021 855.18 817.76 855.369C817.499 855.559 817.18 855.653 816.858 855.635Z" fill="white"/>
<path opacity="0.3" d="M809.013 755.753C808.743 755.75 808.479 755.672 808.251 755.528C808.023 755.384 807.839 755.18 807.719 754.937C804.225 747.212 799.744 739.972 794.39 733.398C794.157 733.11 794.047 732.741 794.084 732.373C794.121 732.004 794.302 731.665 794.587 731.429C794.731 731.309 794.896 731.219 795.075 731.164C795.253 731.109 795.441 731.091 795.627 731.109C795.813 731.127 795.993 731.182 796.157 731.271C796.322 731.36 796.467 731.481 796.584 731.626C802.07 738.391 806.672 745.828 810.278 753.756C810.358 753.922 810.404 754.102 810.414 754.286C810.423 754.47 810.395 754.654 810.333 754.827C810.27 755 810.173 755.159 810.047 755.293C809.922 755.428 809.771 755.537 809.603 755.612C809.418 755.698 809.217 755.746 809.013 755.753Z" fill="white"/>
<path d="M361.989 1152.7H360.948C357.219 1152.59 353.685 1151.01 351.122 1148.3C348.559 1145.59 347.177 1141.97 347.282 1138.24C347.386 1134.51 348.968 1130.98 351.678 1128.41C354.389 1125.85 358.007 1124.47 361.736 1124.58H361.989C370.115 1124.58 389.659 1114.7 430.545 1050.25C431.631 1048.54 433.073 1047.09 434.774 1045.98C436.475 1044.88 438.394 1044.16 440.4 1043.87C442.406 1043.58 444.451 1043.72 446.395 1044.3C448.339 1044.87 450.136 1045.86 451.663 1047.19C483.772 1074.79 518.791 1098.82 556.101 1118.84C557.828 1119.62 559.377 1120.75 560.657 1122.15C561.937 1123.55 562.92 1125.19 563.548 1126.98C564.176 1128.77 564.435 1130.67 564.309 1132.57C564.184 1134.46 563.677 1136.31 562.819 1138C561.961 1139.69 560.769 1141.19 559.316 1142.41C557.863 1143.63 556.178 1144.54 554.363 1145.09C552.548 1145.64 550.64 1145.82 548.754 1145.61C546.869 1145.41 545.044 1144.82 543.391 1143.89C508.715 1125.47 475.938 1103.67 445.533 1078.82C411.255 1130.42 385.834 1152.7 361.989 1152.7Z" fill="#263238"/>
<path d="M448.992 1044.66H447.783C445.573 1044.34 443.581 1043.15 442.242 1041.37C440.903 1039.58 440.327 1037.34 440.64 1035.13C442.637 1021.07 440.162 968.678 422.419 927.904C421.632 926.102 421.499 924.082 422.043 922.192C422.587 920.303 423.774 918.663 425.399 917.556C463.924 891.32 545.978 888.17 549.465 888.058C550.573 888.021 551.677 888.202 552.714 888.592C553.752 888.982 554.703 889.572 555.512 890.33C556.322 891.087 556.974 891.996 557.432 893.006C557.89 894.015 558.145 895.105 558.182 896.212C558.219 897.32 558.037 898.425 557.647 899.462C557.258 900.5 556.667 901.45 555.91 902.26C555.153 903.069 554.243 903.722 553.234 904.18C552.225 904.638 551.135 904.893 550.027 904.93C549.268 904.93 477.534 907.742 440.697 927.988C456.388 968.593 459.959 1019.18 457.344 1037.49C457.041 1039.48 456.031 1041.31 454.498 1042.62C452.966 1043.94 451.012 1044.66 448.992 1044.66Z" fill="#263238"/>
<path d="M463.165 1033.75C457.541 1020.5 432.233 1021.99 417.414 1033.35C409.484 1039.4 398.742 1057.65 397.73 1064.29C397.392 1065.86 397.443 1067.5 397.877 1069.05C398.311 1070.6 399.116 1072.03 400.223 1073.2C401.33 1074.37 402.704 1075.26 404.23 1075.78C405.755 1076.31 407.384 1076.45 408.978 1076.21C418.679 1075.36 431.98 1061.28 431.98 1061.28C423.122 1069.97 434.567 1076.1 451.664 1063.53C461 1056.52 469.436 1048.57 463.165 1033.75Z" fill="#38D0CF"/>
<path d="M946.829 860.921C946.699 860.951 946.565 860.951 946.435 860.921C946.256 860.873 946.088 860.789 945.942 860.674C945.796 860.56 945.675 860.416 945.585 860.254C945.496 860.091 945.44 859.911 945.422 859.727C945.404 859.542 945.423 859.355 945.479 859.178C949.219 846.13 953.296 838.172 958.667 833.87C957.825 830.846 957.983 827.63 959.117 824.703C960.427 821.286 962.741 818.345 965.753 816.267C964.935 815.382 964.353 814.304 964.063 813.134C963.773 811.964 963.784 810.739 964.094 809.574C965.113 806.052 967.219 802.941 970.112 800.688C969.069 799.521 968.497 798.008 968.509 796.442C968.509 788.006 984.003 775.296 1001.58 772.878C1001.95 772.826 1002.33 772.924 1002.63 773.15C1002.93 773.377 1003.13 773.714 1003.18 774.087C1003.23 774.46 1003.14 774.838 1002.91 775.139C1002.68 775.439 1002.34 775.638 1001.97 775.69C985.269 777.967 971.265 790.059 971.321 796.442C971.315 797.394 971.678 798.311 972.333 799.001C976.116 796.436 980.372 794.65 984.852 793.747C989.333 792.844 993.948 792.843 998.429 793.743C1007.06 795.402 1010.58 797.23 1010.18 799.845C1009.4 804.766 991.033 805.806 978.717 804.344C976.51 804.144 974.363 803.523 972.39 802.516C969.738 804.404 967.766 807.096 966.766 810.193C966.525 811.013 966.526 811.884 966.771 812.703C967.016 813.522 967.492 814.252 968.144 814.805C973.374 811.993 980.713 810.98 990.415 813.117C1003.15 815.929 1003.63 817.476 1003.94 818.404C1004.04 818.732 1004.05 819.08 1003.96 819.412C1003.88 819.744 1003.71 820.047 1003.46 820.288C1000.79 823.1 981.248 821.778 971.434 819.36C970.249 819.09 969.105 818.664 968.031 818.095C965.126 819.86 962.891 822.541 961.676 825.715C960.864 827.769 960.64 830.009 961.029 832.183C961.53 831.883 962.046 831.611 962.576 831.367C968.397 828.555 975.427 829.061 984.116 832.773C989.74 835.22 992.552 837.413 992.833 839.635C992.845 840.204 992.703 840.767 992.42 841.262C992.138 841.757 991.727 842.167 991.23 842.447C986.928 845.259 971.912 844.865 964.094 840.703C962.297 839.726 960.799 838.278 959.764 836.513C955.18 840.731 951.468 848.239 948.094 860.022C947.992 860.277 947.818 860.498 947.594 860.658C947.369 860.817 947.104 860.909 946.829 860.921ZM962.07 834.685C962.853 836.14 964.046 837.333 965.5 838.116C971.855 841.49 984.341 842.25 989.009 840.366C989.965 839.972 990.105 839.663 990.105 839.663C990.105 839.663 989.965 838.088 983.075 835.135C975.202 831.761 969.015 831.283 963.869 833.673C963.249 833.972 962.648 834.31 962.07 834.685ZM971.462 816.211L972.165 816.407C981.322 818.518 990.746 819.229 1000.12 818.516C996.792 817.284 993.367 816.343 989.88 815.704C983.824 814.064 977.419 814.24 971.462 816.211ZM975.005 800.407C976.303 800.873 977.654 801.175 979.026 801.307C993.086 802.966 1005.43 801.026 1007.15 799.254C1006.67 798.833 1004.78 797.623 997.81 796.302C989.963 794.737 981.814 796.204 975.005 800.407Z" fill="#263238"/>
<path d="M580.763 1148C582.619 1147.41 582 1145.61 579.919 1145.61H541.845C469.351 1137.93 418.707 1148.22 450.623 1150.64C482.54 1153.06 448.374 1152.55 425.062 1161.38C401.751 1170.21 598.422 1172.44 616.278 1161.38C632.7 1151.2 555.061 1156.24 580.763 1148Z" fill="#263238"/>
<path d="M853.358 1159.22L522.105 1148.22L508.354 827.037L899.531 835.782L853.358 1159.22Z" fill="#38D0CF"/>
<path d="M625.53 1153.06C625.176 1153.06 624.835 1152.93 624.574 1152.69C624.313 1152.45 624.153 1152.12 624.124 1151.77L597.579 829.174C597.555 828.803 597.677 828.436 597.919 828.153C598.16 827.87 598.502 827.691 598.873 827.656C599.242 827.639 599.605 827.763 599.887 828.003C600.168 828.243 600.349 828.581 600.391 828.949L627.077 1151.54C627.092 1151.73 627.071 1151.91 627.014 1152.09C626.957 1152.27 626.866 1152.43 626.746 1152.57C626.626 1152.71 626.479 1152.83 626.314 1152.91C626.149 1153 625.968 1153.05 625.783 1153.06H625.53Z" fill="#263238"/>
<path d="M853.358 1159.22L942.386 1145.66L970.422 847.002L899.531 835.782L853.358 1159.22Z" fill="#38D0CF"/>
<path opacity="0.2" d="M853.358 1159.22L942.386 1145.66L970.422 847.002L899.531 835.782L853.358 1159.22Z" fill="black"/>
<path d="M550.393 1086.33L542.238 895.481C542.037 890.766 542.805 886.061 544.495 881.655C546.185 877.248 548.761 873.236 552.063 869.865C555.366 866.494 559.324 863.836 563.695 862.056C568.065 860.276 572.754 859.411 577.472 859.516L825.097 865.14C829.973 865.25 834.77 866.392 839.172 868.492C843.574 870.592 847.481 873.601 850.635 877.321C853.789 881.041 856.119 885.388 857.47 890.074C858.822 894.76 859.164 899.679 858.475 904.508L831.03 1096.68C829.843 1105.1 825.59 1112.78 819.088 1118.25C812.586 1123.73 804.292 1126.61 795.796 1126.35L583.799 1119.32C575.096 1119.05 566.817 1115.5 560.621 1109.38C554.426 1103.26 550.772 1095.03 550.393 1086.33Z" fill="#263238"/>
<path d="M577.164 918.09L615.463 919.299L615.154 929.169L591.167 928.41L590.942 935.777L613.185 936.48L612.876 945.929L590.633 945.198L590.352 954.337L615.013 955.124L614.676 965.585L575.673 964.347L577.164 918.09Z" fill="white"/>
<path d="M622.578 965.838L624.04 919.58L647.886 920.34C651.305 920.322 654.708 920.815 657.981 921.802C660.302 922.579 662.287 924.127 663.605 926.189C664.583 927.69 665.24 929.377 665.537 931.143C665.834 932.91 665.764 934.719 665.332 936.458C664.899 938.196 664.113 939.827 663.023 941.248C661.932 942.67 660.561 943.851 658.994 944.72C657.395 945.543 655.678 946.112 653.904 946.407C655.211 946.828 656.452 947.434 657.588 948.207C658.408 948.968 659.143 949.817 659.781 950.737C660.505 951.613 661.145 952.554 661.693 953.549L668.189 967.188L652.048 966.653L644.849 952.284C644.278 950.912 643.436 949.669 642.375 948.628C641.365 947.898 640.161 947.487 638.916 947.447H637.65L637.06 966.203L622.578 965.838ZM637.819 938.786L643.837 938.983C645.114 938.905 646.384 938.727 647.633 938.449C648.574 938.306 649.428 937.814 650.023 937.071C650.632 936.321 650.977 935.393 651.007 934.428C651.061 933.785 650.97 933.138 650.741 932.535C650.512 931.931 650.152 931.387 649.686 930.941C648.117 929.927 646.264 929.444 644.399 929.563L638.1 929.366L637.819 938.786Z" fill="white"/>
<path d="M672.856 967.328L674.318 921.071L698.136 921.83C701.555 921.81 704.958 922.303 708.231 923.292C710.556 924.061 712.543 925.611 713.855 927.679C715.282 929.932 715.952 932.583 715.767 935.243C715.775 937.487 715.176 939.692 714.032 941.623C712.888 943.554 711.243 945.139 709.271 946.21C707.671 947.029 705.954 947.598 704.182 947.897C705.481 948.317 706.713 948.923 707.837 949.697C708.678 950.437 709.424 951.277 710.059 952.2C710.778 953.079 711.417 954.02 711.971 955.012L718.467 968.622L702.326 968.116L695.127 953.746C694.552 952.376 693.711 951.134 692.652 950.091C691.648 949.332 690.425 948.918 689.166 948.91H687.928L687.31 967.694L672.856 967.328ZM688.069 940.277L694.115 940.446C695.393 940.397 696.664 940.228 697.911 939.939C698.846 939.8 699.692 939.307 700.273 938.561C700.903 937.824 701.252 936.888 701.257 935.918C701.318 935.277 701.233 934.63 701.01 934.027C700.786 933.423 700.428 932.878 699.964 932.431C698.395 931.392 696.525 930.907 694.649 931.053L688.378 930.857L688.069 940.277Z" fill="white"/>
<path d="M720.772 945.844C720.555 942.616 721.055 939.38 722.238 936.369C723.42 933.357 725.255 930.645 727.61 928.427C729.965 926.209 732.782 924.54 735.859 923.541C738.936 922.541 742.196 922.235 745.405 922.645C748.644 922.538 751.871 923.083 754.895 924.247C757.919 925.411 760.678 927.171 763.008 929.422C765.088 931.817 766.659 934.61 767.626 937.632C768.593 940.653 768.935 943.839 768.632 946.997C768.655 951.591 767.575 956.124 765.483 960.214C763.587 963.56 760.752 966.278 757.328 968.031C753.293 969.96 748.827 970.813 744.365 970.506C739.915 970.543 735.514 969.582 731.486 967.694C728.056 965.833 725.257 962.994 723.443 959.539C721.317 955.304 720.393 950.567 720.772 945.844ZM735.057 946.35C734.635 949.895 735.439 953.477 737.335 956.502C738.221 957.491 739.298 958.292 740.501 958.857C741.704 959.422 743.008 959.738 744.336 959.788C745.663 959.838 746.988 959.62 748.229 959.147C749.471 958.674 750.605 957.956 751.563 957.036C753.648 953.879 754.636 950.124 754.375 946.35C754.753 942.961 753.927 939.547 752.041 936.705C751.189 935.723 750.135 934.935 748.951 934.397C747.767 933.858 746.481 933.581 745.18 933.584C743.868 933.49 742.551 933.694 741.329 934.181C740.106 934.668 739.01 935.425 738.122 936.396C735.993 939.266 734.911 942.78 735.057 946.35Z" fill="white"/>
<path d="M775.859 970.731L777.322 924.445L801.139 925.204C804.557 925.199 807.958 925.691 811.234 926.667C813.549 927.456 815.53 929.001 816.858 931.053C818.278 933.31 818.948 935.958 818.771 938.618C818.784 940.866 818.187 943.077 817.043 945.013C815.899 946.949 814.251 948.539 812.275 949.613C810.667 950.408 808.953 950.967 807.185 951.272C808.486 951.7 809.718 952.315 810.841 953.099C811.681 953.839 812.427 954.68 813.062 955.602C813.786 956.477 814.427 957.419 814.974 958.414L821.47 972.052L805.329 971.546L798.13 957.149C797.558 955.785 796.716 954.552 795.656 953.521C794.647 952.766 793.429 952.344 792.169 952.312H790.932L790.313 971.096L775.859 970.731ZM791.072 943.651L797.118 943.848C798.397 943.799 799.668 943.63 800.914 943.342C801.845 943.192 802.688 942.701 803.276 941.964C803.94 941.18 804.291 940.179 804.261 939.152C804.321 938.515 804.237 937.873 804.012 937.273C803.788 936.674 803.431 936.134 802.967 935.693C801.399 934.654 799.528 934.169 797.652 934.315L791.382 934.118L791.072 943.651Z" fill="white"/>
<path d="M798.609 1049.33C798.081 1049.34 797.557 1049.23 797.072 1049.02C796.587 1048.82 796.153 1048.51 795.797 1048.12L771.726 1021.77L745.743 1045.5C745.023 1046.16 744.071 1046.51 743.095 1046.47C742.12 1046.42 741.201 1046 740.541 1045.28L716.47 1018.93L690.487 1042.66C689.767 1043.32 688.815 1043.67 687.84 1043.63C686.864 1043.58 685.945 1043.16 685.285 1042.44L661.186 1016.09L635.232 1039.82C634.853 1040.16 634.408 1040.43 633.924 1040.59C633.441 1040.75 632.929 1040.82 632.42 1040.78C631.443 1040.72 630.526 1040.29 629.861 1039.57L605.79 1013.25L579.835 1036.95C579.111 1037.61 578.154 1037.96 577.174 1037.92C576.193 1037.88 575.27 1037.45 574.605 1036.73C574.276 1036.37 574.022 1035.95 573.857 1035.5C573.692 1035.04 573.619 1034.56 573.643 1034.07C573.666 1033.59 573.786 1033.12 573.994 1032.68C574.203 1032.24 574.496 1031.85 574.858 1031.53L603.54 1005.29C604.265 1004.63 605.222 1004.28 606.202 1004.32C607.182 1004.37 608.105 1004.79 608.771 1005.51L632.841 1031.86L658.796 1008.13C659.532 1007.48 660.488 1007.14 661.467 1007.17C662.446 1007.23 663.365 1007.66 664.026 1008.38L688.097 1034.73L714.08 1011C714.435 1010.67 714.851 1010.41 715.306 1010.24C715.761 1010.08 716.244 1010 716.728 1010.02C717.212 1010.04 717.687 1010.16 718.126 1010.37C718.564 1010.57 718.957 1010.86 719.282 1011.22L743.353 1037.57L769.336 1013.84C770.056 1013.18 771.008 1012.83 771.983 1012.87C772.959 1012.92 773.878 1013.34 774.538 1014.06L801.421 1043.25C801.901 1043.79 802.215 1044.45 802.324 1045.17C802.432 1045.88 802.332 1046.61 802.033 1047.26C801.735 1047.92 801.253 1048.47 800.645 1048.86C800.037 1049.25 799.329 1049.45 798.609 1049.44V1049.33Z" fill="white"/>
<path d="M353.61 1166.05L336.006 1157.64L320.315 1081.24L328.836 1071.88L353.61 1166.05Z" fill="#38D0CF"/>
<path d="M353.609 1166.05L376.976 1152.39L356.955 1089.45L328.835 1071.88L353.609 1166.05Z" fill="#38D0CF"/>
<path opacity="0.2" d="M353.609 1166.05L376.976 1152.39L356.955 1089.45L328.835 1071.88L353.609 1166.05Z" fill="black"/>
<path d="M736.744 1179.94H734.804C731.075 1179.84 727.539 1178.26 724.973 1175.56C722.408 1172.85 721.023 1169.23 721.124 1165.5C721.224 1161.77 722.802 1158.24 725.51 1155.67C728.218 1153.11 731.834 1151.72 735.563 1151.82C757.216 1152.53 803.051 1139.23 829.259 1113.8C830.842 1112.25 832.769 1111.1 834.883 1110.43C879.285 1097.1 895.791 1124.01 896.466 1125.17L872.283 1139.48C872.368 1139.66 872.471 1139.83 872.592 1139.98C872.339 1139.62 866.04 1131.55 846.019 1136.5C813.146 1166.47 762.699 1179.94 736.744 1179.94Z" fill="#263238"/>
<path d="M735.029 1198.62L683.822 1195.41L679.801 1100.98L748.61 1103.54L735.029 1198.62Z" fill="#38D0CF"/>
<path d="M735.029 1198.61L747.008 1186.69L754.432 1127.84L748.611 1103.54L735.029 1198.61Z" fill="#38D0CF"/>
<path opacity="0.2" d="M735.029 1198.61L747.008 1186.69L754.432 1127.84L748.611 1103.54L735.029 1198.61Z" fill="black"/>
<path d="M1031.75 1162.87C1029.91 1162.87 1028.13 1162.27 1026.66 1161.16C997.416 1138.94 957.908 1099.49 942.751 1061.45C942.524 1060.9 942.363 1060.32 942.273 1059.73C934.877 1015.75 927.819 923.208 927.51 919.299C927.427 918.191 927.563 917.078 927.91 916.022C928.257 914.967 928.809 913.991 929.533 913.148C930.997 911.448 933.076 910.398 935.313 910.23C937.551 910.062 939.763 910.79 941.464 912.254C943.164 913.717 944.214 915.796 944.382 918.034C944.382 918.961 951.609 1012.4 958.808 1056.02C973.936 1093.02 1015.05 1131.01 1036.92 1147.72C1038.33 1148.79 1039.37 1150.27 1039.89 1151.96C1040.41 1153.65 1040.38 1155.46 1039.82 1157.14C1039.25 1158.81 1038.18 1160.27 1036.74 1161.3C1035.3 1162.33 1033.58 1162.88 1031.81 1162.87H1031.75Z" fill="#263238"/>
<path d="M1070.75 1167.12C1064.23 1167.12 1056.83 1164.17 1048.76 1158.35C1046.95 1157.03 1045.74 1155.06 1045.38 1152.85C1045.03 1150.64 1045.57 1148.38 1046.88 1146.56C1048.19 1144.75 1050.17 1143.54 1052.38 1143.18C1054.59 1142.83 1056.85 1143.37 1058.66 1144.68C1065.64 1149.71 1069.43 1150.3 1070.75 1150.3C1072.99 1150.3 1075.14 1151.19 1076.72 1152.78C1078.3 1154.36 1079.19 1156.5 1079.19 1158.74C1079.19 1160.98 1078.3 1163.12 1076.72 1164.71C1075.14 1166.29 1072.99 1167.18 1070.75 1167.18V1167.12Z" fill="#263238"/>
<path d="M1051.13 1158.09C1060.15 1131.3 1097.16 1136.58 1109.92 1140.58C1120.83 1143.74 1131.29 1148.28 1141.05 1154.07C1147.94 1158.57 1148.06 1166.14 1138.86 1170.44C1127.61 1175.73 1099.04 1171.03 1099.04 1171.03C1113.78 1177.47 1099.04 1187.9 1073.14 1177.67C1064.74 1174.35 1047.95 1167.94 1051.13 1158.09Z" fill="#38D0CF"/>
<path d="M961.311 930.772C957.965 953.549 939.096 970.337 923.743 968.087C908.389 965.838 907.77 945.591 911.117 922.702C914.463 899.812 920.537 883.334 935.89 885.583C951.244 887.833 964.657 908.079 961.311 930.772Z" fill="#263238"/>
<path d="M590.183 839.945C591.456 839.945 592.489 838.912 592.489 837.639C592.489 836.365 591.456 835.333 590.183 835.333C588.909 835.333 587.877 836.365 587.877 837.639C587.877 838.912 588.909 839.945 590.183 839.945Z" fill="#263238"/>
<path d="M613.607 854.229C613.607 854.685 613.472 855.131 613.219 855.51C612.965 855.889 612.605 856.185 612.184 856.359C611.763 856.534 611.299 856.58 610.852 856.491C610.404 856.402 609.993 856.182 609.671 855.86C609.348 855.537 609.129 855.126 609.04 854.679C608.951 854.232 608.997 853.768 609.171 853.347C609.346 852.925 609.641 852.565 610.02 852.312C610.4 852.059 610.845 851.923 611.301 851.923C611.913 851.923 612.5 852.166 612.932 852.599C613.364 853.031 613.607 853.618 613.607 854.229Z" fill="#263238"/>
<path d="M616.194 1126.71C616.194 1127.17 616.059 1127.61 615.806 1127.99C615.552 1128.37 615.192 1128.67 614.771 1128.84C614.349 1129.02 613.886 1129.06 613.439 1128.97C612.991 1128.88 612.58 1128.66 612.258 1128.34C611.935 1128.02 611.716 1127.61 611.627 1127.16C611.538 1126.71 611.584 1126.25 611.758 1125.83C611.933 1125.41 612.228 1125.05 612.607 1124.79C612.987 1124.54 613.432 1124.41 613.888 1124.41C614.5 1124.41 615.086 1124.65 615.519 1125.08C615.951 1125.51 616.194 1126.1 616.194 1126.71Z" fill="#263238"/>
<path d="M637.312 1143.33C637.312 1143.79 637.177 1144.23 636.923 1144.61C636.67 1144.99 636.31 1145.29 635.888 1145.46C635.467 1145.64 635.003 1145.68 634.556 1145.59C634.109 1145.5 633.698 1145.28 633.376 1144.96C633.053 1144.64 632.833 1144.23 632.745 1143.78C632.656 1143.33 632.701 1142.87 632.876 1142.45C633.05 1142.03 633.346 1141.67 633.725 1141.41C634.104 1141.16 634.55 1141.03 635.006 1141.03C635.618 1141.03 636.204 1141.27 636.636 1141.7C637.069 1142.13 637.312 1142.72 637.312 1143.33Z" fill="#263238"/>
<path d="M232.018 1170.97C227.97 1170.78 224.016 1169.69 220.448 1167.76C216.88 1165.84 213.79 1163.14 211.406 1159.87C211.289 1159.71 211.204 1159.54 211.156 1159.36C211.108 1159.17 211.099 1158.98 211.128 1158.79C211.156 1158.6 211.223 1158.42 211.324 1158.26C211.425 1158.1 211.558 1157.96 211.715 1157.85C211.871 1157.74 212.049 1157.66 212.236 1157.63C212.423 1157.59 212.615 1157.59 212.802 1157.63C212.989 1157.67 213.166 1157.74 213.322 1157.85C213.479 1157.96 213.611 1158.1 213.712 1158.26C218.97 1165.85 230.584 1169.88 235.646 1167.49C236.152 1167.27 236.604 1166.94 236.967 1166.53C234.41 1165.4 232.169 1163.67 230.442 1161.47C228.716 1159.27 227.557 1156.68 227.069 1153.93C226.422 1150.36 225.916 1145.5 228.841 1144.88C232.89 1143.98 238.176 1153.74 240.089 1161.13C240.435 1162.35 240.559 1163.63 240.454 1164.9C242.076 1165.38 243.782 1165.52 245.459 1165.29C246.215 1165.23 246.951 1165.02 247.619 1164.66C248.287 1164.3 248.873 1163.81 249.34 1163.21C247.489 1161.82 245.954 1160.04 244.835 1158.01C243.716 1155.98 243.037 1153.74 242.844 1151.43C241.776 1143.72 242.591 1142.4 243.435 1141.73C243.708 1141.52 244.034 1141.39 244.377 1141.35C244.72 1141.32 245.065 1141.38 245.375 1141.53C248.384 1142.8 252.011 1153.71 252.714 1159.89C252.799 1160.54 252.799 1161.19 252.714 1161.83C253.927 1162.3 255.212 1162.55 256.511 1162.56C258.895 1162.66 261.253 1162.04 263.288 1160.79C262.894 1160.54 262.528 1160.26 262.163 1159.98C259.351 1157.48 258.057 1153.48 258.563 1147.8C258.957 1143.39 259.941 1140.97 261.713 1140.21C262.284 1139.98 262.91 1139.92 263.514 1140.04C264.118 1140.16 264.675 1140.45 265.115 1140.88C267.014 1142.98 268.432 1145.46 269.272 1148.17C270.112 1150.87 270.354 1153.72 269.98 1156.52C269.736 1157.69 269.247 1158.79 268.546 1159.75C273.72 1160.65 280.975 1159.19 287.246 1157.64C287.43 1157.6 287.622 1157.59 287.809 1157.62C287.997 1157.65 288.177 1157.72 288.339 1157.82C288.501 1157.92 288.641 1158.05 288.753 1158.2C288.865 1158.35 288.945 1158.53 288.989 1158.71C289.033 1158.9 289.041 1159.09 289.011 1159.28C288.982 1159.46 288.915 1159.64 288.816 1159.81C288.717 1159.97 288.587 1160.11 288.433 1160.22C288.279 1160.33 288.105 1160.41 287.921 1160.46C280.3 1162.34 272.089 1163.89 266.296 1162.2C263.469 1164.35 260.006 1165.5 256.454 1165.46C254.878 1165.44 253.318 1165.15 251.843 1164.59C251.188 1165.6 250.311 1166.45 249.277 1167.07C248.244 1167.69 247.082 1168.06 245.881 1168.16C243.768 1168.43 241.62 1168.25 239.582 1167.63C238.926 1168.73 237.944 1169.61 236.77 1170.13C235.262 1170.74 233.644 1171.03 232.018 1170.97ZM229.6 1147.69C229.211 1149.6 229.288 1151.58 229.825 1153.45C230.221 1155.7 231.154 1157.82 232.545 1159.63C233.935 1161.44 235.741 1162.89 237.811 1163.86C237.771 1163.19 237.658 1162.53 237.473 1161.89C235.28 1153.85 231.062 1148.31 229.6 1147.69ZM245.263 1145.24C245.281 1147.18 245.441 1149.12 245.741 1151.04C246.051 1154.46 247.565 1157.67 250.015 1160.09C249.323 1154.9 247.714 1149.87 245.263 1145.24ZM262.95 1142.8C262.95 1142.8 261.882 1143.33 261.488 1148.03C261.094 1152.72 261.91 1155.96 264.103 1157.84C264.622 1158.26 265.188 1158.62 265.79 1158.91C266.53 1158.12 267.053 1157.15 267.309 1156.1C267.81 1151.67 266.614 1147.22 263.962 1143.64C263.372 1142.91 263.034 1142.8 262.95 1142.8Z" fill="#263238"/>
<path d="M643.583 1192.23L651.204 1179.02L643.583 1165.8H635.428L640.04 1179.02L635.428 1192.23H643.583Z" fill="#263238"/>
<path d="M635.962 1185.9C635.022 1185.96 634.08 1185.83 633.194 1185.51C632.308 1185.19 631.496 1184.7 630.809 1184.05C630.122 1183.41 629.575 1182.63 629.2 1181.77C628.826 1180.9 628.633 1179.97 628.633 1179.03C628.633 1178.09 628.826 1177.16 629.2 1176.29C629.575 1175.43 630.122 1174.65 630.809 1174C631.496 1173.36 632.308 1172.86 633.194 1172.55C634.08 1172.23 635.022 1172.09 635.962 1172.15L623.027 1169.57L619.568 1180.03L625.361 1188.86L635.962 1185.9Z" fill="#263238"/>
<path d="M637.086 1165.8H621.817L614.197 1179.02L621.817 1192.23H637.086L644.707 1179.02L637.086 1165.8ZM629.466 1185.9C628.102 1185.91 626.767 1185.51 625.631 1184.76C624.494 1184 623.607 1182.93 623.081 1181.67C622.555 1180.41 622.415 1179.03 622.677 1177.69C622.94 1176.35 623.594 1175.12 624.556 1174.15C625.519 1173.19 626.746 1172.53 628.083 1172.26C629.421 1171.99 630.807 1172.13 632.068 1172.65C633.328 1173.17 634.406 1174.05 635.164 1175.18C635.922 1176.32 636.327 1177.65 636.327 1179.02C636.327 1180.84 635.605 1182.59 634.319 1183.88C633.033 1185.17 631.288 1185.9 629.466 1185.9Z" fill="#38D0CF"/>
<path d="M1175.11 1164.9L1169.45 1155.09L1175.11 1145.27H1181.15L1177.75 1155.09L1181.15 1164.9H1175.11Z" fill="#38D0CF"/>
<path d="M1180.76 1160.2C1181.46 1160.26 1182.17 1160.16 1182.83 1159.93C1183.5 1159.7 1184.1 1159.33 1184.62 1158.85C1185.14 1158.37 1185.55 1157.79 1185.83 1157.15C1186.11 1156.5 1186.26 1155.8 1186.26 1155.1C1186.26 1154.4 1186.11 1153.7 1185.83 1153.05C1185.55 1152.41 1185.14 1151.83 1184.62 1151.35C1184.1 1150.87 1183.5 1150.5 1182.83 1150.27C1182.17 1150.04 1181.46 1149.94 1180.76 1150L1190.38 1148.08L1192.93 1155.84L1188.66 1162.4L1180.76 1160.2Z" fill="#38D0CF"/>
<path d="M1179.94 1145.27H1191.19L1196.81 1155.09L1191.19 1164.9H1179.94L1174.32 1155.09L1179.94 1145.27ZM1185.57 1160.2C1186.58 1160.21 1187.57 1159.91 1188.42 1159.35C1189.26 1158.8 1189.92 1158 1190.32 1157.06C1190.71 1156.13 1190.81 1155.1 1190.62 1154.1C1190.42 1153.11 1189.94 1152.2 1189.22 1151.48C1188.51 1150.76 1187.6 1150.27 1186.6 1150.07C1185.61 1149.87 1184.58 1149.97 1183.64 1150.35C1182.71 1150.74 1181.91 1151.4 1181.34 1152.24C1180.78 1153.08 1180.48 1154.07 1180.48 1155.09C1180.47 1155.76 1180.6 1156.43 1180.86 1157.05C1181.12 1157.67 1181.49 1158.24 1181.97 1158.71C1182.44 1159.19 1183.01 1159.57 1183.63 1159.82C1184.25 1160.08 1184.92 1160.21 1185.59 1160.2H1185.57Z" fill="#263238"/>
<path d="M964.516 1177.95H977.226C978.817 1177.94 980.34 1177.3 981.463 1176.17C982.585 1175.05 983.216 1173.52 983.216 1171.93C983.216 1170.34 982.585 1168.81 981.463 1167.68C980.34 1166.56 978.817 1165.92 977.226 1165.91H964.516C962.92 1165.91 961.389 1166.55 960.261 1167.67C959.132 1168.8 958.498 1170.33 958.498 1171.93C958.498 1173.52 959.132 1175.06 960.261 1176.18C961.389 1177.31 962.92 1177.95 964.516 1177.95Z" fill="#263238"/>
<path d="M944.073 1166.59C945.253 1164.44 947.034 1162.69 949.198 1161.54C951.362 1160.4 953.814 1159.91 956.251 1160.14C958.688 1160.38 961.004 1161.32 962.913 1162.85C964.822 1164.38 966.241 1166.44 966.995 1168.77C967.749 1171.1 967.805 1173.6 967.155 1175.96C966.506 1178.32 965.18 1180.44 963.341 1182.05C961.501 1183.67 959.229 1184.71 956.805 1185.05C954.381 1185.39 951.91 1185.01 949.697 1183.96C946.656 1182.4 944.358 1179.69 943.305 1176.43C942.251 1173.18 942.527 1169.64 944.073 1166.59Z" fill="#38D0CF"/>
<path d="M947.503 1183.96L950.987 1185.6L963.098 1159.91L959.613 1158.27L947.503 1183.96Z" fill="#263238"/>
</g>
<defs>
<clipPath id="clip0_146_513">
<rect width="1406" height="1406" fill="white"/>
</clipPath>
</defs>
</svg>
